<svg width="827" height="462" viewBox="0 0 827 462" fill="none" xmlns="http://www.w3.org/2000/svg">
<path d="M241.65 250.857C240.343 251.546 239.096 251.813 237.909 251.659C236.728 251.502 235.68 250.964 234.766 250.044C233.859 249.12 233.163 247.848 232.681 246.229C232.194 244.595 232.042 243.025 232.225 241.519C232.415 240.009 232.9 238.659 233.679 237.468C234.465 236.274 235.511 235.333 236.818 234.644C238.124 233.956 239.368 233.69 240.549 233.847C241.737 234.001 242.785 234.543 243.695 235.473C244.611 236.4 245.312 237.68 245.799 239.314C246.282 240.934 246.428 242.495 246.236 243.998C246.05 245.498 245.565 246.844 244.779 248.038C244 249.229 242.957 250.168 241.65 250.857ZM241.005 248.693C241.998 248.169 242.732 247.463 243.209 246.574C243.685 245.685 243.944 244.71 243.984 243.649C244.024 242.589 243.888 241.534 243.575 240.486C243.263 239.438 242.818 238.542 242.24 237.799C241.662 237.056 240.97 236.575 240.163 236.354C239.355 236.134 238.455 236.286 237.463 236.809C236.47 237.332 235.736 238.042 235.262 238.938C234.787 239.833 234.531 240.815 234.493 241.883C234.455 242.95 234.592 244.008 234.905 245.056C235.217 246.104 235.661 246.997 236.237 247.733C236.812 248.469 237.503 248.944 238.308 249.157C239.113 249.371 240.012 249.216 241.005 248.693Z" fill="#FF00E5"/>
<path d="M272.138 234.935L263.644 215.068L266.207 214.271L272.84 230.54L273.043 230.477L275.2 211.475L278.049 210.589L284.763 226.833L284.966 226.77L287.042 207.793L289.605 206.995L286.706 230.405L284.102 231.215L277.274 215.402L277.111 215.452L274.743 234.125L272.138 234.935Z" fill="#FF00E5"/>
<path d="M323.92 222.014C322.451 222.17 321.171 221.955 320.079 221.369C318.994 220.783 318.156 219.891 317.564 218.693C316.98 217.494 316.709 216.05 316.749 214.36C316.79 212.656 317.133 211.136 317.778 209.8C318.43 208.463 319.315 207.385 320.434 206.565C321.56 205.745 322.857 205.257 324.326 205.102C325.795 204.946 327.072 205.161 328.157 205.748C329.249 206.333 330.087 207.229 330.671 208.435C331.262 209.64 331.537 211.095 331.496 212.799C331.456 214.489 331.11 215.998 330.458 217.328C329.813 218.657 328.928 219.731 327.802 220.552C326.683 221.371 325.389 221.859 323.92 222.014ZM323.974 219.756C325.09 219.638 326.015 219.254 326.75 218.602C327.484 217.951 328.035 217.138 328.404 216.164C328.772 215.191 328.97 214.157 328.996 213.063C329.022 211.97 328.874 210.969 328.55 210.062C328.227 209.154 327.712 208.447 327.006 207.941C326.299 207.435 325.388 207.241 324.272 207.359C323.156 207.478 322.231 207.866 321.497 208.524C320.762 209.183 320.211 210.003 319.842 210.984C319.473 211.964 319.276 213.002 319.249 214.095C319.223 215.189 319.372 216.186 319.695 217.086C320.019 217.987 320.534 218.686 321.241 219.185C321.947 219.684 322.859 219.875 323.974 219.756Z" fill="#FF00E5"/>
<path d="M371.95 220.207L375.786 204.299L378.167 204.776L377.568 207.261L377.777 207.303C378.316 206.521 379.015 205.969 379.873 205.649C380.733 205.321 381.686 205.262 382.73 205.471C383.789 205.683 384.612 206.098 385.201 206.715C385.798 207.326 386.193 208.096 386.385 209.025L386.552 209.059C387.161 208.319 387.935 207.79 388.873 207.471C389.813 207.145 390.857 207.097 392.007 207.327C393.441 207.614 394.507 208.294 395.205 209.367C395.904 210.434 396.028 211.902 395.577 213.774L393.01 224.42L390.544 223.927L393.112 213.28C393.395 212.107 393.273 211.203 392.747 210.569C392.221 209.936 391.519 209.531 390.641 209.356C389.513 209.13 388.558 209.293 387.775 209.846C386.993 210.392 386.479 211.179 386.231 212.208L383.733 222.564L381.226 222.063L383.853 211.168C384.071 210.263 383.951 209.475 383.492 208.805C383.035 208.127 382.34 207.695 381.407 207.508C380.766 207.38 380.126 207.429 379.488 207.656C378.856 207.884 378.297 208.265 377.811 208.797C377.333 209.324 377.001 209.977 376.813 210.758L374.415 220.7L371.95 220.207Z" fill="#FF00E5"/>
<path d="M420.668 233.37C419.712 232.967 418.917 232.419 418.28 231.726C417.646 231.027 417.236 230.233 417.05 229.345C416.866 228.451 416.967 227.507 417.355 226.515C417.696 225.642 418.143 225.006 418.695 224.607C419.25 224.202 419.873 223.964 420.564 223.893C421.254 223.823 421.973 223.856 422.719 223.994C423.475 224.128 424.221 224.297 424.957 224.5C425.92 224.767 426.697 224.992 427.29 225.173C427.891 225.35 428.353 225.417 428.674 225.376C429.002 225.337 429.239 225.129 429.387 224.752L429.418 224.672C429.8 223.693 429.832 222.821 429.514 222.054C429.203 221.291 428.514 220.684 427.448 220.234C426.342 219.767 425.379 219.646 424.56 219.87C423.74 220.094 423.095 220.43 422.622 220.878L420.734 219.156C421.488 218.396 422.294 217.896 423.15 217.656C424.015 217.412 424.877 217.352 425.735 217.476C426.603 217.596 427.417 217.816 428.176 218.137C428.66 218.341 429.193 218.635 429.774 219.02C430.365 219.4 430.885 219.893 431.334 220.499C431.79 221.108 432.073 221.856 432.184 222.742C432.295 223.629 432.114 224.678 431.641 225.888L427.717 235.93L425.4 234.952L426.207 232.888L426.089 232.839C425.803 233.103 425.403 233.346 424.889 233.569C424.375 233.791 423.763 233.906 423.051 233.914C422.339 233.921 421.544 233.74 420.668 233.37ZM421.843 231.416C422.759 231.802 423.602 231.946 424.373 231.848C425.149 231.752 425.811 231.484 426.356 231.044C426.908 230.606 427.308 230.07 427.556 229.435L428.394 227.292C428.249 227.37 427.991 227.387 427.618 227.346C427.255 227.3 426.843 227.223 426.383 227.113C425.932 227 425.493 226.884 425.067 226.765C424.649 226.643 424.31 226.546 424.048 226.474C423.415 226.299 422.802 226.191 422.209 226.148C421.625 226.102 421.104 226.187 420.647 226.402C420.198 226.613 419.858 227.017 419.625 227.612C419.307 228.426 419.364 229.167 419.797 229.835C420.238 230.499 420.921 231.026 421.843 231.416Z" fill="#FF00E5"/>
<path d="M450.54 248.448C449.243 247.629 448.294 246.604 447.694 245.371C447.094 244.139 446.838 242.801 446.924 241.357C447.011 239.913 447.435 238.469 448.195 237.023C448.968 235.552 449.909 234.416 451.017 233.617C452.134 232.815 453.325 232.39 454.59 232.343C455.864 232.293 457.126 232.662 458.375 233.45C459.348 234.064 460.126 234.806 460.709 235.676C461.291 236.545 461.653 237.477 461.795 238.471C461.937 239.464 461.83 240.451 461.474 241.433L459.348 240.091C459.532 239.329 459.479 238.517 459.188 237.655C458.907 236.791 458.297 236.063 457.36 235.472C456.531 234.949 455.686 234.717 454.823 234.775C453.97 234.831 453.154 235.158 452.376 235.755C451.608 236.35 450.936 237.195 450.361 238.289C449.773 239.408 449.429 240.488 449.329 241.53C449.235 242.576 449.377 243.524 449.754 244.373C450.138 245.226 450.75 245.918 451.591 246.449C452.144 246.797 452.698 247.013 453.254 247.096C453.811 247.179 454.344 247.131 454.855 246.951C455.365 246.77 455.825 246.458 456.235 246.013L458.361 247.355C457.792 248.134 457.09 248.717 456.255 249.102C455.43 249.486 454.524 249.634 453.538 249.548C452.561 249.459 451.561 249.092 450.54 248.448Z" fill="#FF00E5"/>
<path d="M478.862 256.372L473.304 264.497L471.423 262.829L483.741 244.82L485.622 246.489L481.099 253.101L481.258 253.243C482.022 252.8 482.832 252.627 483.686 252.726C484.55 252.823 485.463 253.299 486.424 254.152C487.259 254.892 487.863 255.724 488.237 256.65C488.615 257.57 488.719 258.561 488.547 259.623C488.384 260.685 487.906 261.796 487.112 262.956L481.242 271.539L479.361 269.87L485.135 261.429C485.869 260.356 486.184 259.303 486.08 258.269C485.986 257.233 485.495 256.322 484.607 255.535C483.991 254.989 483.34 254.642 482.655 254.496C481.975 254.354 481.306 254.434 480.647 254.735C479.994 255.041 479.399 255.587 478.862 256.372Z" fill="#FF00E5"/>
<path d="M495.536 286.432L506.017 273.865L507.673 275.756L497.193 288.323L495.536 286.432ZM508.606 272.732C508.283 272.363 508.111 271.917 508.091 271.394C508.076 270.876 508.218 270.437 508.518 270.077C508.818 269.717 509.19 269.539 509.633 269.545C510.081 269.556 510.466 269.745 510.789 270.114C511.112 270.482 511.281 270.926 511.297 271.444C511.317 271.967 511.177 272.409 510.877 272.769C510.577 273.129 510.203 273.304 509.755 273.293C509.312 273.288 508.929 273.101 508.606 272.732Z" fill="#FF00E5"/>
<path d="M516.436 297.093L509.421 303.998L508.004 301.921L519.666 290.442L521.034 292.448L519.212 294.242L519.332 294.418C520.14 294.152 520.944 294.165 521.744 294.457C522.549 294.743 523.299 295.397 523.995 296.418C524.62 297.333 525.004 298.294 525.148 299.299C525.297 300.3 525.176 301.312 524.783 302.336C524.395 303.355 523.705 304.353 522.713 305.329L515.303 312.624L513.887 310.546L521.175 303.372C522.091 302.47 522.617 301.492 522.752 300.437C522.892 299.377 522.634 298.366 521.978 297.404C521.525 296.741 520.997 296.27 520.393 295.992C519.793 295.72 519.153 295.669 518.473 295.838C517.793 296.007 517.114 296.425 516.436 297.093Z" fill="#FF00E5"/>
<path d="M529.192 338.426C528.504 337.007 528.189 335.573 528.245 334.125C528.311 332.679 528.71 331.299 529.444 329.985C530.186 328.674 531.226 327.513 532.564 326.503C533.902 325.493 535.214 324.877 536.5 324.657C537.796 324.438 538.97 324.608 540.023 325.166C541.084 325.727 541.937 326.672 542.581 328.001C542.953 328.768 543.207 329.611 543.342 330.53C543.478 331.449 543.44 332.407 543.227 333.406C543.02 334.401 542.588 335.395 541.932 336.388C541.275 337.381 540.337 338.338 539.119 339.258L538.269 339.9L532.767 328.55L534.501 327.24L538.888 336.29C539.625 335.734 540.202 335.071 540.619 334.302C541.039 333.54 541.269 332.729 541.309 331.869C541.352 331.016 541.175 330.18 540.779 329.362C540.342 328.461 539.766 327.831 539.05 327.472C538.343 327.116 537.589 326.999 536.79 327.123C535.99 327.246 535.231 327.58 534.511 328.123L533.355 328.996C532.368 329.741 531.625 330.564 531.125 331.466C530.634 332.369 530.377 333.301 530.355 334.26C530.338 335.216 530.551 336.151 530.994 337.065C531.282 337.659 531.616 338.14 531.996 338.508C532.385 338.878 532.814 339.126 533.285 339.251C533.761 339.371 534.273 339.356 534.819 339.205L535.335 341.802C534.566 342.068 533.8 342.118 533.038 341.951C532.282 341.781 531.571 341.401 530.906 340.811C530.247 340.218 529.675 339.423 529.192 338.426Z" fill="#FF00E5"/>
<path d="M57.4978 227.733C52.1229 231.025 47.1087 232.444 42.4553 231.989C37.8277 231.518 33.8408 229.335 30.4946 225.442C27.1742 221.533 24.7972 216.044 23.3636 208.976C21.9179 201.848 21.78 194.938 22.95 188.245C24.1457 181.536 26.4611 175.477 29.8959 170.068C33.3566 164.643 37.7745 160.284 43.1494 156.992C48.5244 153.7 53.5256 152.289 58.1532 152.76C62.8066 153.216 66.7965 155.413 70.1229 159.352C73.4752 163.275 75.8742 168.8 77.3198 175.928C78.7535 182.996 78.8694 189.87 77.6676 196.549C76.4916 203.212 74.1733 209.256 70.7126 214.681C67.2777 220.091 62.8728 224.441 57.4978 227.733ZM55.5823 218.289C59.6652 215.789 62.7806 212.528 64.9285 208.508C67.0763 204.488 68.3858 200.13 68.8569 195.435C69.328 190.739 69.0997 186.104 68.1721 181.531C67.2444 176.957 65.7469 173.083 63.6796 169.909C61.6122 166.735 59.0137 164.737 55.8839 163.916C52.7542 163.095 49.1479 163.935 45.065 166.436C40.9821 168.937 37.8697 172.212 35.7278 176.262C33.586 180.311 32.2825 184.699 31.8175 189.424C31.3524 194.15 31.5837 198.799 32.5113 203.373C33.439 207.946 34.9335 211.805 36.9948 214.95C39.0561 218.095 41.6487 220.062 44.7724 220.854C47.8961 221.645 51.4994 220.79 55.5823 218.289Z" fill="#FF00E5"/>
<path d="M128.736 180.132L101.189 96.5224L111.834 92.2926L133.083 160.861L133.928 160.525L149.176 77.4549L161.003 72.7552L182.59 141.189L183.435 140.853L198.345 57.9175L208.99 53.6877L189.226 156.097L178.412 160.394L156.218 93.8633L155.542 94.1319L139.55 175.836L128.736 180.132Z" fill="#FF00E5"/>
<path d="M261.502 134.865C255.305 136.017 250.019 135.536 245.643 133.421C241.298 131.3 238.085 127.8 236.006 122.921C233.957 118.037 233.296 112.007 234.022 104.831C234.754 97.5953 236.688 91.0381 239.826 85.1594C242.994 79.2752 247.053 74.4087 252.002 70.5597C256.981 66.7052 262.569 64.2018 268.766 63.0495C274.963 61.8973 280.234 62.3814 284.58 64.502C288.955 66.617 292.166 70.1319 294.212 75.0466C296.288 79.9558 296.96 86.0284 296.228 93.2642C295.502 100.44 293.557 106.954 290.392 112.808C287.258 118.657 283.201 123.509 278.221 127.363C273.272 131.212 267.699 133.713 261.502 134.865ZM262.472 125.277C267.179 124.402 271.175 122.461 274.461 119.454C277.747 116.447 280.321 112.818 282.183 108.566C284.046 104.315 285.212 99.8682 285.682 95.2252C286.151 90.5822 285.859 86.3916 284.805 82.6532C283.751 78.9148 281.829 76.092 279.04 74.1848C276.252 72.2776 272.504 71.7617 267.796 72.637C263.089 73.5122 259.091 75.4685 255.802 78.5058C252.513 81.5431 249.936 85.2024 248.071 89.4837C246.205 93.765 245.038 98.2271 244.568 102.87C244.098 107.513 244.392 111.689 245.45 115.397C246.507 119.105 248.431 121.898 251.223 123.775C254.015 125.652 257.764 126.153 262.472 125.277Z" fill="#FF00E5"/>
<path d="M365.538 120.209L385.514 53.3091L395.773 54.7787L392.651 65.2318L393.551 65.3607C396.057 61.9955 399.21 59.5555 403.009 58.0409C406.817 56.4972 410.971 56.0476 415.471 56.6922C420.03 57.3453 423.526 58.8906 425.957 61.3282C428.427 63.7409 429.984 66.8555 430.627 70.6719L431.347 70.775C434.149 67.5733 437.623 65.2096 441.769 63.6841C445.925 62.1296 450.477 61.7069 455.426 62.4159C461.606 63.3011 466.101 65.898 468.912 70.2066C471.732 74.4862 471.967 80.5604 469.617 88.4292L456.248 133.203L445.629 131.682L458.999 86.908C460.472 81.9719 460.131 78.2441 457.974 75.7249C455.817 73.2056 452.849 71.6752 449.07 71.1338C444.21 70.4376 440.021 71.3211 436.501 73.7843C432.991 76.2183 430.589 79.5986 429.298 83.925L416.293 127.479L405.494 125.932L419.175 80.1132C420.311 76.3094 419.951 73.0635 418.094 70.3753C416.247 67.6581 413.313 66.0116 409.294 65.4358C406.534 65.0405 403.742 65.3823 400.917 66.4613C398.123 67.5446 395.614 69.2441 393.389 71.5597C391.204 73.8505 389.621 76.6365 388.642 79.9176L376.157 121.73L365.538 120.209Z" fill="#FF00E5"/>
<path d="M489.937 149.214C485.82 147.594 482.413 145.359 479.718 142.509C477.034 139.63 475.336 136.342 474.622 132.643C473.92 128.917 474.469 124.967 476.27 120.794C477.854 117.121 479.871 114.432 482.322 112.727C484.784 110.995 487.524 109.957 490.542 109.615C493.559 109.272 496.686 109.363 499.923 109.888C503.2 110.397 506.431 111.049 509.617 111.847C513.781 112.9 517.143 113.783 519.705 114.498C522.306 115.196 524.309 115.447 525.713 115.251C527.145 115.066 528.203 114.18 528.887 112.594L529.031 112.26C530.808 108.142 531.046 104.493 529.746 101.313C528.474 98.1434 525.54 95.6545 520.943 93.8461C516.178 91.971 511.997 91.5305 508.402 92.5245C504.807 93.5184 501.955 94.9677 499.847 96.8723L491.813 89.8054C495.185 86.5756 498.749 84.4303 502.505 83.3694C506.301 82.2918 510.063 81.9819 513.791 82.4396C517.559 82.8805 521.079 83.7445 524.35 85.0315C526.436 85.8525 528.725 87.046 531.216 88.612C533.748 90.1612 535.958 92.1864 537.848 94.6874C539.766 97.1996 540.917 100.305 541.3 104.004C541.684 107.702 540.778 112.098 538.582 117.19L520.363 159.428L510.381 155.5L514.125 146.819L513.617 146.619C512.341 147.744 510.571 148.789 508.307 149.754C506.044 150.718 503.361 151.241 500.259 151.323C497.156 151.404 493.715 150.701 489.937 149.214ZM495.276 140.965C499.224 142.518 502.881 143.062 506.249 142.597C509.644 142.143 512.555 140.977 514.981 139.1C517.435 137.234 519.238 134.965 520.39 132.294L524.279 123.279C523.64 123.613 522.511 123.706 520.893 123.558C519.315 123.393 517.529 123.097 515.536 122.671C513.583 122.228 511.685 121.774 509.84 121.309C508.036 120.827 506.568 120.444 505.437 120.162C502.698 119.475 500.039 119.063 497.459 118.927C494.919 118.774 492.641 119.163 490.623 120.094C488.645 121.009 487.116 122.718 486.036 125.222C484.56 128.645 484.727 131.737 486.537 134.5C488.387 137.246 491.3 139.401 495.276 140.965Z" fill="#FF00E5"/>
<path d="M560.949 186.703C555.429 183.185 551.42 178.8 548.92 173.549C546.421 168.298 545.403 162.611 545.865 156.487C546.328 150.363 548.235 144.246 551.588 138.136C554.999 131.919 559.107 127.133 563.914 123.779C568.761 120.414 573.9 118.652 579.333 118.494C584.806 118.325 590.2 119.935 595.515 123.323C599.655 125.962 602.948 129.137 605.395 132.848C607.843 136.56 609.34 140.527 609.886 144.748C610.433 148.969 609.912 153.155 608.324 157.307L599.279 151.54C600.119 148.311 599.942 144.863 598.746 141.196C597.59 137.519 595.019 134.41 591.033 131.869C587.507 129.621 583.89 128.606 580.184 128.825C576.517 129.034 572.995 130.392 569.618 132.901C566.281 135.4 563.345 138.961 560.808 143.583C558.214 148.312 556.67 152.886 556.177 157.305C555.71 161.741 556.26 165.767 557.828 169.384C559.421 173.018 562.006 175.975 565.584 178.255C567.935 179.754 570.301 180.689 572.684 181.06C575.067 181.432 577.36 181.244 579.564 180.497C581.767 179.75 583.762 178.44 585.548 176.567L594.594 182.333C592.1 185.621 589.05 188.069 585.443 189.678C581.875 191.276 577.977 191.875 573.748 191.474C569.559 191.063 565.293 189.473 560.949 186.703Z" fill="#FF00E5"/>
<path d="M628.243 186.094L604.536 220.763L596.758 213.376L649.304 136.533L657.082 143.92L637.787 172.136L638.447 172.762C641.669 170.913 645.065 170.239 648.635 170.742C652.244 171.241 656.037 173.379 660.014 177.156C663.464 180.432 665.946 184.09 667.461 188.128C668.994 192.142 669.37 196.44 668.592 201.023C667.853 205.602 665.79 210.368 662.403 215.321L637.362 251.942L629.584 244.554L654.215 208.534C657.345 203.956 658.721 199.426 658.345 194.942C658.007 190.453 656.003 186.467 652.334 182.982C649.785 180.561 647.081 179.003 644.222 178.309C641.384 177.636 638.579 177.922 635.807 179.167C633.056 180.433 630.535 182.742 628.243 186.094Z" fill="#FF00E5"/>
<path d="M649.617 271.707L693.537 217.434L700.158 225.874L656.238 280.147L649.617 271.707ZM704.224 212.68C702.933 211.035 702.268 209.063 702.229 206.763C702.209 204.488 702.827 202.573 704.086 201.018C705.344 199.463 706.879 198.717 708.691 198.778C710.522 198.863 712.083 199.728 713.374 201.373C714.664 203.018 715.32 204.978 715.34 207.254C715.38 209.553 714.77 211.48 713.512 213.035C712.254 214.589 710.709 215.324 708.878 215.239C707.066 215.178 705.514 214.325 704.224 212.68Z" fill="#FF00E5"/>
<path d="M709.001 288.774L679.944 319.101L674.536 309.837L722.838 259.423L728.063 268.374L720.516 276.251L720.974 277.036C724.252 275.889 727.475 275.978 730.644 277.303C733.834 278.607 736.758 281.535 739.416 286.089C741.799 290.172 743.213 294.444 743.659 298.906C744.125 303.347 743.503 307.829 741.791 312.353C740.101 316.855 737.201 321.25 733.092 325.539L702.4 357.572L696.993 348.308L727.181 316.799C730.976 312.839 733.214 308.524 733.895 303.854C734.598 299.162 733.696 294.67 731.191 290.378C729.465 287.42 727.408 285.313 725.021 284.056C722.65 282.825 720.089 282.571 717.339 283.293C714.59 284.015 711.81 285.842 709.001 288.774Z" fill="#FF00E5"/>
<path d="M719.812 413.979C717.393 407.702 716.448 401.338 716.977 394.887C717.54 388.445 719.409 382.279 722.586 376.39C725.796 370.51 730.151 365.284 735.65 360.711C741.149 356.139 746.464 353.325 751.595 352.27C756.761 351.223 761.365 351.913 765.407 354.339C769.484 356.773 772.656 360.932 774.923 366.813C776.231 370.206 777.056 373.944 777.399 378.027C777.742 382.11 777.388 386.381 776.337 390.839C775.31 395.278 773.394 399.727 770.59 404.187C767.786 408.646 763.879 412.959 758.869 417.124L755.374 420.03L736.019 369.813L743.149 363.885L758.581 403.923C761.61 401.404 764.029 398.422 765.839 394.975C767.66 391.557 768.741 387.933 769.08 384.104C769.43 380.303 768.908 376.593 767.513 372.974C765.976 368.987 763.831 366.215 761.078 364.659C758.358 363.112 755.406 362.636 752.22 363.231C749.034 363.826 745.962 365.354 743.003 367.815L738.249 371.767C734.195 375.138 731.085 378.844 728.919 382.885C726.788 386.934 725.577 391.096 725.286 395.371C725.018 399.626 725.664 403.775 727.222 407.818C728.236 410.448 729.454 412.571 730.877 414.188C732.334 415.814 733.98 416.891 735.815 417.419C737.672 417.928 739.697 417.832 741.888 417.13L743.378 428.661C740.283 429.89 737.247 430.155 734.27 429.457C731.316 428.739 728.588 427.087 726.084 424.502C723.603 421.898 721.512 418.39 719.812 413.979Z" fill="#FF00E5"/>
<path d="M102 344C102 352.4 97.4 360 91 360C97.4 360 102 367.6 102 376C102 367.6 106.6 360 113 360C106.6 360 102 352.4 102 344Z" fill="#6ADBC6"/>
</svg>
