<svg width="698" height="327" viewBox="0 0 698 327" fill="none" xmlns="http://www.w3.org/2000/svg">
<path d="M139.181 159.24C140.44 147.911 155.798 166.743 157.256 168.355C166.747 178.844 176.22 181.939 189.235 185.657" stroke="black" stroke-width="2" stroke-linecap="round"/>
<path d="M225.385 189.828C225.937 185.406 234.219 187.528 236.585 188.438C247.161 192.506 257.164 195.165 268.254 197.475C277.647 199.432 288.297 200.853 297.684 198.171" stroke="black" stroke-width="2" stroke-linecap="round"/>
<path d="M339.395 188.438C336.521 185.204 342.854 181.826 345.729 180.868C353.447 178.296 361.557 181.274 369.211 181.486C387.112 181.983 400.212 193.192 418.646 187.048" stroke="black" stroke-width="2" stroke-linecap="round"/>
<path d="M471.481 162.021C474.334 161.704 477.442 156.569 480.441 155.069C486.3 152.139 492.805 150.471 499.365 150.975C505.655 151.459 511.922 153.679 518.213 153.679C527.19 153.679 536.1 152.288 545.17 152.288" stroke="black" stroke-width="2" stroke-linecap="round"/>
<path d="M15.4383 188.438C12.7278 190.697 0.7885 198.345 1.61178 190.524C2.8656 178.612 16.8552 168.598 28.2606 170.672C43.4558 173.435 55.5121 185.256 70.4352 189.519C83.9764 193.388 97.7978 192.538 111.374 196.78" stroke="black" stroke-width="2" stroke-linecap="round"/>
<path d="M169.77 225.978C180.214 216.634 194.908 226.593 205.533 230.922C217.239 235.691 229.358 239.783 240.679 245.443" stroke="black" stroke-width="2" stroke-linecap="round"/>
<path d="M308.807 248.224C313.444 247.951 317.111 242.859 320.702 240.191C329.106 233.948 343.382 233.938 353.299 235.016C372.571 237.11 391.314 245.061 410.304 239.882" stroke="black" stroke-width="2" stroke-linecap="round"/>
<path d="M463.138 228.759C468.801 222.388 468.052 216.15 478.432 212.847C487.842 209.853 500.838 213.514 510.102 215.164C521.452 217.185 530.81 220.313 542.39 219.026" stroke="black" stroke-width="2" stroke-linecap="round"/>
<path d="M531.267 189.828C544.984 189.828 558.383 189.384 572.051 188.129C581.288 187.281 600.295 188.164 606.347 180.096" stroke="black" stroke-width="2" stroke-linecap="round"/>
<path d="M279.609 128.652C280.016 131.907 291.523 113.166 292.818 110.577C297.607 100.998 300.465 89.9208 300.465 79.2165C300.465 65.2749 298.889 48.2878 293.204 35.497C291.478 31.6131 282.925 2.12802 287.256 2.12802C295.713 2.12802 300.43 4.78723 308.498 7.38054C315.13 9.51223 322.448 11.007 328.581 14.6414C335.355 18.6558 343.684 21.6077 349.823 26.3823C352.892 28.7697 358.665 32.4289 361.95 33.7976C365.179 35.1431 367.364 38.1949 370.679 39.6681C382.82 45.0643 391.001 56.3435 399.49 65.7762C407.109 74.242 412.15 87.9485 414.553 98.7589C417.305 111.145 415.866 121.679 415.866 134.213" stroke="black" stroke-width="2" stroke-linecap="round"/>
<path d="M329.663 38.2777C339.123 46.6869 349.347 53.8554 356.852 64.7721C361.934 72.164 367.85 80.2402 371.683 88.3312C372.722 90.5257 375.811 104.289 372.764 96.6734" stroke="black" stroke-width="2" stroke-linecap="round"/>
<path d="M328.272 34.1066C328.43 35.366 335.383 38.6015 336.923 39.6681C342.029 43.203 348.18 45.6717 352.604 50.0959C358.485 55.9775 365.754 60.6926 369.983 68.0935C372.33 72.2007 376.657 78.0418 376.935 82.7697C377.347 89.7678 375.545 95.7493 375.545 102.235" stroke="black" stroke-width="2" stroke-linecap="round"/>
<path d="M283.78 146.727C284.128 149.51 302.463 152.749 305.486 153.679C314.969 156.597 323.941 157.85 333.834 157.85C343.9 157.85 354.577 158.884 364.576 157.773C371.364 157.018 382.165 153.513 388.058 156.459" stroke="black" stroke-width="2" stroke-linecap="round"/>
<path d="M420.037 153.679C420.37 150.677 435.872 140.021 438.73 138.462C441.761 136.809 443.673 131.079 443.673 127.88C443.673 121.845 439.3 118.48 435.022 115.057C430.796 111.677 429.925 113.444 435.331 116.448C443.431 120.948 440.575 134.24 433.323 138.385C429.812 140.391 426.82 144.454 423.127 146.727C419.487 148.966 411.528 155.486 414.475 148.117" stroke="black" stroke-width="2" stroke-linecap="round"/>
<path d="M438.112 99.4541C447.08 99.4541 438.157 98.0638 434.636 98.0638C431.262 98.0638 440.267 102.037 441.201 103.625C444.555 109.326 443.832 108.152 438.807 104.243C435.088 101.351 431.757 96.4745 426.989 98.0638" stroke="black" stroke-width="2" stroke-linecap="round"/>
<path d="M456.187 118.919C456.542 121.766 461.306 124.038 463.138 125.871C467.048 129.781 462.515 135.332 458.967 137.303C453.141 140.54 450.866 143.705 457.577 136.994C461.463 133.108 461.748 129.708 461.748 124.481" stroke="black" stroke-width="2" stroke-linecap="round"/>
<path d="M486.775 121.7C487.082 124.16 494.227 126.989 496.198 128.961C499.897 132.659 495.185 136.404 491.718 138.385C485.335 142.032 493.624 137.251 495.889 134.986C500.072 130.803 501.804 129.215 495.117 125.871" stroke="black" stroke-width="2" stroke-linecap="round"/>
<path d="M518.753 113.358C524.365 118.969 544.542 127.135 527.096 130.042" stroke="black" stroke-width="2" stroke-linecap="round"/>
<path d="M281 127.262C281 134.053 287.488 115.281 291.505 109.805C296.876 102.48 305.422 96.3494 313.751 93.9699C316.67 93.1359 307.698 93.7512 305.949 93.9699C301.471 94.5296 297.863 97.6075 299.152 91.8071C299.92 88.3494 300.465 85.7848 300.465 82.0745C300.465 78.1915 302.263 76.8241 303.168 73.655C304.75 68.1176 313.16 63.8553 303.245 63.3044C295.803 62.891 295.255 55.3837 294.903 49.4007C294.452 41.7268 290.978 36.6816 294.594 28.5451C297.212 22.656 289.337 18.806 286.561 14.6414" stroke="black" stroke-width="2" stroke-linecap="round"/>
<path d="M283.78 6.29917C283.78 13.7351 284.468 29.9355 295.598 29.9355C298.632 29.9355 300.907 31.3259 303.941 31.3259C308.859 31.3259 303.861 34.0329 303.246 34.8018C297.508 41.9731 290.892 28.5539 288.724 25.1464C287.034 22.4905 287.022 18.7412 284.862 16.3408C282.295 13.4888 282.958 15.4046 284.862 17.7311C289.959 23.9615 294.059 31.6355 303.246 32.7163C306.358 33.0825 298.378 31.9922 295.985 31.0169C291.988 29.3888 287.073 23.032 285.48 19.1215C284.202 15.9863 281.336 6.63823 281 10.0068C280.449 15.5163 284.529 19.7043 288.26 23.2926C292.599 27.4642 309.496 34.2925 303.709 32.639C294.258 29.9386 291.423 17.7406 287.951 9.92959C283.779 0.540626 288.171 18.1993 290.037 21.516C290.785 22.8459 292.864 29.3644 292.123 27.6955C290.292 23.5757 287.902 19.6959 286.561 15.3366C285.203 10.9236 282.39 -2.48911 282.39 2.12805C282.39 8.80001 287.519 15.5357 287.951 21.5933C288.347 27.1297 284.346 10.7853 280.691 6.60814C276.272 1.55878 283.869 19.7633 286.87 25.7644C289.176 30.3756 290.732 37.9134 290.732 43.0668C290.732 47.7936 293.513 52.3304 293.513 57.0478C293.513 60.9744 293.227 68.0628 297.066 70.2563C301.442 72.7568 316.808 73.4412 312.128 71.5695C306.063 69.1433 288.993 59.4415 294.903 62.2231C301.862 65.4977 324.222 70.2563 316.531 70.2563C310.823 70.2563 301.552 64.1741 297.375 60.8327C294.155 58.2564 298.236 65.2465 299.074 66.0852C301.303 68.3138 304.175 68.7087 301.546 71.3377C298.439 74.445 290.971 98.0638 294.208 98.0638C300.519 98.0638 307.53 94.1582 313.596 92.4251C321.191 90.2551 306.127 96.1103 303.941 96.5962C293.493 98.9178 290.33 110.361 283.471 117.22C281.308 119.384 279.285 122.15 282.39 117.838C285.894 112.972 290.249 109.111 295.367 105.943C300.352 102.857 306.657 100.658 308.807 95.283" stroke="black" stroke-width="2" stroke-linecap="round"/>
<path d="M286.561 6.29916C282.277 6.29916 285.235 6.16335 287.951 6.29916C292.356 6.51939 296.149 6.91968 300.465 7.99851C312.736 11.0663 323.7 16.2513 335.147 21.5933C355.125 30.9166 371.165 43.6302 386.668 59.1333C399.05 71.5155 402.655 86.1636 409.609 101.462C413.907 110.917 411.695 123.968 411.695 134.213" stroke="black" stroke-width="2" stroke-linecap="round"/>
<path d="M173.941 102.235C189.484 110.464 224.621 147.117 237.898 116.139" stroke="black" stroke-width="2" stroke-linecap="round"/>
<path d="M240.679 88.3312C247.727 88.3312 254.517 89.1765 261.534 89.6443C264.235 89.8244 283.101 91.3964 275.438 88.3312" stroke="black" stroke-width="2" stroke-linecap="round"/>
<path d="M103.032 132.823C88.673 116.67 127.655 114.883 136.401 111.967" stroke="black" stroke-width="2" stroke-linecap="round"/>
<path d="M426.989 64.6948C429.137 64.4263 431.701 61.884 434.095 61.2189C443.104 58.7164 448.731 61.5232 456.882 65.4673C472.864 73.2004 489.333 82.7697 507.63 82.7697" stroke="black" stroke-width="2" stroke-linecap="round"/>
<path d="M535.438 82.7697C546.866 94.1979 564.024 98.8425 575.759 110.577" stroke="black" stroke-width="2" stroke-linecap="round"/>
<path d="M591.053 127.262C592.756 132.94 601.858 138.815 606.347 142.556" stroke="black" stroke-width="2" stroke-linecap="round"/>
<path d="M561.855 263.518C561.226 269.176 563.23 263.142 564.945 261.046C566.904 258.652 566.637 251.524 565.717 248.533C562.149 236.935 553.612 228.958 552.199 216.245C549.716 193.893 557.505 175.629 574.986 161.326C585.953 152.353 607.921 151.376 620.251 157.541C625.497 160.164 632.788 163.702 638.943 161.944C642.915 160.809 658.132 162.163 648.058 166.192" stroke="black" stroke-width="2" stroke-linecap="round"/>
<path d="M563.245 271.86C563.917 277.906 578.494 267.58 580.47 265.604C584.314 261.761 586.877 256.455 589.353 251.777C596.474 238.327 611.901 228.763 625.04 221.807C640.257 213.751 654.192 201.082 666.133 188.438C670.502 183.811 685.017 160.733 672.39 157.927C667.881 156.925 664.162 160.429 660.571 162.33C655.186 165.181 651.795 164.782 645.972 163.489C636.879 161.468 630.262 150.898 620.946 150.898C616.427 150.898 611.47 148.117 606.347 148.117C599.945 148.117 593.773 150.989 587.577 152.366C558.524 158.822 542.39 194.356 542.39 220.417" stroke="black" stroke-width="2" stroke-linecap="round"/>
<path d="M563.245 277.422C562.784 277.356 565.957 260.057 565.331 257.802C563.338 250.628 564.041 242.884 561.546 235.711C558.719 227.582 555.378 219.079 553.513 210.684C551.738 202.699 549.057 194.206 549.341 185.966C549.591 178.733 553.431 173.226 558.302 168.355C565.875 160.782 572.828 162 582.71 163.411" stroke="black" stroke-width="2" stroke-linecap="round"/>
<path d="M549.342 220.417C548.114 197.098 560.493 172.362 584.796 164.261C596.27 160.436 611.726 161.055 623.726 162.098C628.08 162.477 643.313 163.653 645.277 167.582" stroke="black" stroke-width="2" stroke-linecap="round"/>
<path d="M560.464 276.032C561.521 285.538 568.192 274.48 569.425 272.015C571.287 268.29 573.014 256.631 576.454 262.823C580.172 269.516 585.015 253.583 586.109 251.082C590.02 242.144 587.568 255.021 591.825 255.021C595.929 255.021 593.573 241.248 598.005 242.972C603.171 244.981 601.963 237.936 602.176 234.32C602.4 230.499 610.346 236.691 612.217 236.483C616.535 236.003 607.644 225.978 614.998 225.978C619.344 225.978 625.378 227.387 623.726 221.112C621.916 214.231 623.469 212.462 630.601 214.16C636.112 215.472 639.08 213.723 638.248 207.903C637.226 200.747 641.171 205.031 647.363 203.655C652.268 202.565 646.959 195.871 649.139 193.691C652.674 190.156 660.644 192.97 663.043 188.438C665.661 183.494 658.789 181.517 667.214 178.396C672.337 176.499 674.475 174.39 674.475 168.973" stroke="black" stroke-width="2" stroke-linecap="round"/>
<path d="M584.101 260.737C584.575 256.946 592.797 260.163 594.529 261.51C599.32 265.237 599.116 272.538 601.558 277.422C608.796 291.897 619.218 308.129 635.545 313.572" stroke="black" stroke-width="2" stroke-linecap="round"/>
<path d="M588.272 260.737C601.84 262.245 609.424 279.004 614.071 289.626C618.229 299.129 621.273 309.162 625.812 318.515C628.237 323.512 628.821 327.894 634.154 324.695" stroke="black" stroke-width="2" stroke-linecap="round"/>
<path d="M614.689 238.491C624.062 229.118 630.991 250.733 634.772 256.566C638.438 262.222 651.45 284.17 659.181 281.593" stroke="black" stroke-width="2" stroke-linecap="round"/>
<path d="M618.86 242.663C631.214 244.207 641.907 259.235 648.058 268.462C652.964 275.821 666.267 318.999 678.646 306.62" stroke="black" stroke-width="2" stroke-linecap="round"/>
<path d="M629.983 220.417C631.128 210.117 641.841 224.738 643.887 227.368C649.007 233.951 653.893 236.82 660.571 241.272" stroke="black" stroke-width="2" stroke-linecap="round"/>
<path d="M646.668 223.197C645.172 223.197 651.15 226.061 652.152 226.751C657.531 230.449 662.178 237.657 664.82 243.435C668.374 251.21 673.005 271.424 684.208 267.689" stroke="black" stroke-width="2" stroke-linecap="round"/>
<path d="M655.01 206.513C656.506 193.052 669.746 208.704 672.003 212.383C674.906 217.114 686.627 237.806 693.94 232.93" stroke="black" stroke-width="2" stroke-linecap="round"/>
<path d="M663.352 185.657C668.249 185.657 672.994 185.521 675.865 189.828" stroke="black" stroke-width="2" stroke-linecap="round"/>
<path d="M660.571 187.048C661.24 181.698 673.965 192.309 675.17 193.304C682.754 199.569 687.057 202.342 696.721 202.342" stroke="black" stroke-width="2" stroke-linecap="round"/>
<path d="M575.759 262.128C581.695 262.128 580.417 266.659 579.235 271.86C577.201 280.806 577.667 291.449 581.32 299.668" stroke="black" stroke-width="2" stroke-linecap="round"/>
<path d="M571.587 288.545C573.08 288.918 573.797 293.307 574.368 294.879C576.253 300.063 578.563 303.065 582.71 306.62" stroke="black" stroke-width="2" stroke-linecap="round"/>
<path d="M578.539 285.764C576.502 282.596 574.779 279.334 572.978 276.031" stroke="black" stroke-width="2" stroke-linecap="round"/>
<path d="M602.176 260.737C608.039 266.926 612.357 274.709 620.251 278.503C626.816 281.66 634.239 279.671 641.106 278.812" stroke="black" stroke-width="2" stroke-linecap="round"/>
<path d="M617.47 241.272C635.422 244.998 646.852 260.96 666.133 255.176" stroke="black" stroke-width="2" stroke-linecap="round"/>
<path d="M663.352 227.368C663.352 241.535 662.134 255.315 660.88 269.389C660.124 277.876 660.993 283.826 664.742 291.326" stroke="black" stroke-width="2" stroke-linecap="round"/>
<path d="M684.208 203.732C685.13 216.646 687.801 229.868 689.769 242.663" stroke="black" stroke-width="2" stroke-linecap="round"/>
</svg>
