<svg width="544" height="180" viewBox="0 0 544 180" fill="none" xmlns="http://www.w3.org/2000/svg">
<path d="M238.94 83.6325C238.94 84.6781 236.1 81.4827 234.417 80.6172C228.483 77.5654 221.417 76.2617 214.734 76.2617C199.762 76.2617 176.479 79.981 168.415 93.8511C165.578 98.7305 166.335 110.603 174.194 110.603C192.413 110.603 212.023 84.0931 222.356 72.3251C236.594 56.1088 253.055 33.1324 258.204 11.6C260.8 0.743902 257.648 0.0880318 250.834 8.41722C237.237 25.0352 228.207 46.3006 218.67 65.3731C208.091 86.5313 197.406 107.338 192.538 130.705C190.501 140.48 188.22 164.506 202.756 149.969C212.25 140.476 220.363 127.526 228.47 116.717C243.85 96.2104 263.565 75.3407 272.108 51.1341C272.389 50.34 277.714 33.9589 272.862 37.7327C266.297 42.8391 264.159 56.2737 260.801 63.3629C255.578 74.3894 251.322 91.027 251.001 103.232C250.934 105.772 250.481 121.844 256.278 116.047C262.917 109.408 266.472 101.077 273.281 94.5211C273.939 93.8874 283.885 82.0838 279.647 83.9675C272.48 87.1528 271.656 95.2112 269.847 101.724C269.008 104.746 269.989 117.936 275.961 112.278C278.51 109.864 279.706 106.309 281.154 103.232C282.156 101.104 281.874 95.4194 283.416 94.1861C285.344 92.6433 283.318 90.6659 284.505 94.5211C285.494 97.7381 285.815 100.904 287.185 103.986C290.489 111.419 295.251 104.954 296.566 99.5466C298.424 91.9083 298.298 82.9534 296.147 75.4242C295.629 73.6122 296.213 75.0092 298.492 74.5028C301.467 73.8419 302.105 70.4903 304.104 68.891C307.065 66.5225 306.748 88.3096 306.784 89.6631C306.864 92.5972 310.814 108.081 316.584 102.311C323.337 95.5575 324.391 86.9491 326.3 78.3557C327.002 75.1988 324.876 78.9166 324.876 80.8685C324.876 86.3332 324.79 91.6587 326.719 96.8664C331.017 108.471 339.218 95.5445 339.953 89.6631" stroke="black" stroke-width="3" stroke-linecap="round"/>
<path d="M104.759 54.987C104.903 56.283 111.394 64.2589 111.962 63.0279C114.801 56.8754 96.0315 40.3969 92.7811 37.1465C82.0051 26.3705 69.366 16.3456 55.4247 10.0086C44.1432 4.88067 44.904 10.9862 51.488 18.8871C64.7147 34.759 85.7129 48.3798 104.424 56.8297C105.746 57.4272 118.318 63.1364 117.992 62.5253C115.721 58.2665 100.956 55.1114 97.0527 54.2332C72.0269 48.6024 46.5278 44.0354 20.9999 48.9564C17.0321 49.7213 4.74961 49.6276 1.65162 52.7256C0.486285 53.8909 8.70373 55.2299 9.27366 55.3221C23.2508 57.5831 36.8577 61.6225 50.818 63.9492C71.2381 67.3526 91.6202 71.0124 112.297 71.5713C113.72 71.6097 126.053 74.5242 119.835 71.9063C112.531 68.8309 98.7183 72.7945 91.8597 74.7541C71.0346 80.7041 55.466 104.054 44.6198 121.408C37.1155 133.415 20.5609 159.315 26.6955 175.264C31.9926 189.037 65.1478 139.741 66.3133 137.824C80.3236 114.785 87.9556 88.52 101.743 65.5406" stroke="black" stroke-width="3" stroke-linecap="round"/>
<path d="M404.782 58.0024C394.732 66.9362 417.013 49.524 419.189 47.7838C443.304 28.4916 475.71 5.35157 507.722 2.30284C527.076 0.459526 492.912 17.8213 489.127 19.6409C465.841 30.8359 440.769 37.8787 416.843 47.4488" stroke="black" stroke-width="3" stroke-linecap="round"/>
<path d="M410.813 58.0024C405.165 58.0024 421.702 54.7934 427.313 54.1495C455.159 50.9541 486.208 54.4321 512.998 62.8604C519.155 64.7972 541.979 70.6988 541.979 79.8634C541.979 86.2329 499.073 77.4651 494.823 76.8481C468.641 73.0475 440.39 67.0483 413.828 67.0483" stroke="black" stroke-width="3" stroke-linecap="round"/>
<path d="M424.382 64.033C425.168 57.7397 449.488 79.539 450.849 81.1197C468.392 101.482 481.099 129.617 483.096 156.586C483.383 160.452 484.177 166.457 483.096 170.239C481.872 174.524 469.088 160.718 468.606 160.104C447.83 133.662 431.023 108.282 421.366 76.0942" stroke="black" stroke-width="3" stroke-linecap="round"/>
</svg>
