<svg width="377" height="484" viewBox="0 0 377 484" fill="none" xmlns="http://www.w3.org/2000/svg">
<path d="M3.83988 331.413C0.872824 331.413 0.885334 329.134 2.89354 327.628" stroke="black" stroke-width="2" stroke-linecap="round"/>
<path d="M137.995 209.85C132.595 220.049 113.896 199.501 109.801 195.406C93.8851 179.49 91.3259 160.458 92.1896 138.864C93.2678 111.91 86.37 92.5252 65.8498 74.057C63.3044 71.7661 43.6787 56.7943 46.2301 55.5187" stroke="black" stroke-width="2" stroke-linecap="round"/>
<path d="M75.4279 86.1069C75.4279 86.6626 76.5621 80.9252 76.8183 79.9274C79.1152 70.9817 82.6944 62.9475 86.5509 54.5917C89.4546 48.3003 93.3831 42.1053 95.9745 35.7445C97.2309 32.6606 95.0342 43.4083 94.8931 44.3957" stroke="black" stroke-width="2" stroke-linecap="round"/>
<path d="M75.4279 113.914C74.8846 109.567 64.3383 109.561 61.6014 109.125C60.0167 108.873 43.4284 106.61 50.4012 108.353" stroke="black" stroke-width="2" stroke-linecap="round"/>
<path d="M87.9413 116.695C87.9413 126.488 98.8042 109.064 99.6822 107.735C103.039 102.655 106.285 97.1738 109.878 92.2863C113.28 87.6598 112.678 90.5972 111.578 94.4491" stroke="black" stroke-width="2" stroke-linecap="round"/>
<path d="M136.604 214.021C126.442 212.173 123.032 189.117 121.619 181.579C119.625 170.942 118.529 160.847 118.529 150.064C118.529 149.85 120.528 155.702 121.001 157.016C124.348 166.311 126.943 175.831 130.734 184.978C133.785 192.34 136.422 202.716 142.166 208.46" stroke="black" stroke-width="2" stroke-linecap="round"/>
<path d="M146.337 215.412C146.337 205.252 172.826 203.789 178.933 203.207C199.588 201.24 215.991 206.442 233.93 215.412" stroke="black" stroke-width="2" stroke-linecap="round"/>
<path d="M228.369 209.85C226.342 191.607 234.537 175.875 247.68 162.732C254.106 156.306 251.018 165.699 249.842 169.761C246.71 180.584 241.952 190.919 238.102 201.508" stroke="black" stroke-width="2" stroke-linecap="round"/>
<path d="M246.444 205.679C246.284 206.96 245.993 206.6 245.053 207.069" stroke="black" stroke-width="2" stroke-linecap="round"/>
<path d="M245.053 207.069C245.053 215.258 245.984 190.638 247.834 182.661C250.899 169.443 257.108 160.38 263.128 148.674C268.682 137.874 267.077 131.065 261.429 120.557C255.663 109.831 251.767 98.1428 246.444 87.4972" stroke="black" stroke-width="2" stroke-linecap="round"/>
<path d="M264.519 133.38C266.366 107.52 278.394 78.0942 290.936 55.5187" stroke="black" stroke-width="2" stroke-linecap="round"/>
<path d="M283.984 87.4972C284.632 81.3423 290.319 78.0516 294.489 74.1342C301.981 67.0959 309.276 61.3033 318.28 56.2911C326.152 51.9085 336.482 48.4061 343.461 42.6963C346.436 40.2623 336.898 47.5742 334.81 48.8758C324.225 55.4718 313.423 61.9422 303.449 69.4224" stroke="black" stroke-width="2" stroke-linecap="round"/>
<path d="M311.791 69.4224C322.73 63.6654 333.085 59.0372 345.855 59.767C355.781 60.3342 366.936 66.9554 375.748 61.0801" stroke="black" stroke-width="2" stroke-linecap="round"/>
<path d="M328.476 47.1764C325.196 43.0763 327.085 34.0284 327.085 29.1016C327.085 22.8419 326.573 17.1708 325.695 11.0267" stroke="black" stroke-width="2" stroke-linecap="round"/>
<path d="M342.38 56.909C346.862 56.909 350.654 56.8864 354.893 58.2994" stroke="black" stroke-width="2" stroke-linecap="round"/>
<path d="M169.973 268.246C170.234 266.417 172.574 275.923 172.677 277.206C173.617 288.955 170.426 299.388 165.802 309.957" stroke="black" stroke-width="2" stroke-linecap="round"/>
<path d="M190.829 271.026C189.414 283.765 192.008 297.105 199.171 308.567" stroke="black" stroke-width="2" stroke-linecap="round"/>
<path d="M174.144 323.861C171.849 326.484 189.707 329.29 192.219 329.422C197.857 329.719 186.329 330.813 184.649 330.813C180.455 330.813 176.671 331.822 174.144 328.032" stroke="black" stroke-width="2" stroke-linecap="round"/>
<path d="M167.193 325.251C170.701 332.707 183.316 340.403 189.13 329.422C194.886 318.549 182.964 323.861 176.925 323.861" stroke="black" stroke-width="2" stroke-linecap="round"/>
<path d="M201.952 252.952C204.473 252.671 205.262 250.237 206.741 248.472C210.008 244.569 214.506 241.215 219.254 239.357C227.398 236.17 235.104 236.267 243.663 236.267" stroke="black" stroke-width="2" stroke-linecap="round"/>
<path d="M217.246 246C215.42 246.228 221.251 251.258 225.588 249.089C227.055 248.356 230.069 244.299 228.91 245.459C227.066 247.302 224.891 247.392 222.807 248.78" stroke="black" stroke-width="2" stroke-linecap="round"/>
<path d="M164.412 257.123C162.914 256.936 161.782 255.195 160.55 254.342C157.315 252.103 154.239 251.659 150.431 250.866C144.588 249.649 138.387 250.171 132.433 250.171" stroke="black" stroke-width="2" stroke-linecap="round"/>
<path d="M135.214 246C131.3 246 143.242 244.762 146.955 246C151.886 247.644 157.918 249.238 161.631 252.952" stroke="black" stroke-width="2" stroke-linecap="round"/>
<path d="M160.241 254.342C164.957 249.036 140.384 247.39 136.604 247.39" stroke="black" stroke-width="2" stroke-linecap="round"/>
<path d="M149.118 257.123C149.118 248.028 153.709 253.107 151.126 256.428C147.658 260.886 142.923 250.171 149.118 250.171" stroke="black" stroke-width="2" stroke-linecap="round"/>
<path d="M213.075 248.78C213.614 253.093 220.027 247.626 220.027 244.609" stroke="black" stroke-width="2" stroke-linecap="round"/>
<path d="M132.433 223.754C130.096 225.831 117.505 220.251 113.663 219.66C104.988 218.325 94.8078 221.843 87.6323 226.535C71.5758 237.033 50.0228 252.952 30.2408 252.952C25.7056 252.952 19.6422 253.184 15.9509 249.862C15.1583 249.149 10.8751 245.245 13.9425 247.699C17.9206 250.882 27.2952 247.39 32.3264 247.39C41.3215 247.39 49.0292 247.553 57.3531 251.252C63.2562 253.876 69.1622 256.51 75.5052 259.286C80.1146 261.302 89.9656 266.514 95.2021 265.156C99.7961 263.965 104.205 262.606 108.797 261.294" stroke="black" stroke-width="2" stroke-linecap="round"/>
<path d="M240.882 212.631C236.493 212.631 248.864 208.884 253.087 207.687C267.84 203.507 282.891 206.244 297.192 210.622C313.169 215.513 330.326 227.435 340.68 240.747C341.661 242.009 334.61 239.651 333.728 239.357C326.23 236.858 318.796 233.721 311.251 231.478C298.42 227.663 285.15 226.97 272.088 230.86C261.288 234.077 252.095 239.07 240.882 236.267" stroke="black" stroke-width="2" stroke-linecap="round"/>
<path d="M122.701 273.807C122.701 267.253 125.045 286.733 125.481 293.272" stroke="black" stroke-width="2" stroke-linecap="round"/>
<path d="M153.289 305.786C153.289 304.477 147.841 291.957 150.199 299.915C152.263 306.882 151.898 316.432 151.898 323.861" stroke="black" stroke-width="2" stroke-linecap="round"/>
<path d="M151.898 326.641C154.97 326.641 158.1 330.063 160.241 332.203" stroke="black" stroke-width="2" stroke-linecap="round"/>
<path d="M210.294 325.251C207.957 325.543 212.672 319.145 213.075 315.518C214.069 306.573 206.778 301.863 203.342 293.272" stroke="black" stroke-width="2" stroke-linecap="round"/>
<path d="M220.027 268.246C220.027 278.93 221.417 289.486 221.417 300.224" stroke="black" stroke-width="2" stroke-linecap="round"/>
<path d="M215.856 325.251C215.492 328.163 214.465 330.865 214.465 334.366C214.465 335.941 215.378 345.168 216.551 346.107C220.994 349.661 209.884 350.25 208.904 350.278C202.465 350.462 194.087 352.581 189.439 357.23" stroke="black" stroke-width="2" stroke-linecap="round"/>
<path d="M183.877 351.668C178.597 351.668 173.524 350.278 168.583 350.278" stroke="black" stroke-width="2" stroke-linecap="round"/>
<path d="M158.85 348.887C154.945 342.455 152.871 335.119 150.508 328.032" stroke="black" stroke-width="2" stroke-linecap="round"/>
<path d="M144.947 371.133C142.544 369.031 148.235 382.077 149.118 383.647C155.632 395.228 165.556 403.01 175.535 411.454" stroke="black" stroke-width="2" stroke-linecap="round"/>
<path d="M142.166 368.353C155.798 386.123 171.035 402.842 183.877 421.187" stroke="black" stroke-width="2" stroke-linecap="round"/>
<path d="M196.39 435.09C187.486 432.864 213.221 385.786 217.246 380.866" stroke="black" stroke-width="2" stroke-linecap="round"/>
<path d="M200.561 418.406C197.601 421.737 199.538 418.695 200.561 415.625C203.009 408.282 206.8 401.177 210.603 394.461C215.252 386.25 230.978 375.569 226.979 365.572" stroke="black" stroke-width="2" stroke-linecap="round"/>
<path d="M226.979 369.743C238.296 385.305 219.247 408.897 211.684 421.187" stroke="black" stroke-width="2" stroke-linecap="round"/>
<path d="M171.364 430.919C155.922 415.478 147.635 397.366 137.995 378.085" stroke="black" stroke-width="2" stroke-linecap="round"/>
<path d="M142.166 394.77C148.773 413.647 165.158 429.111 179.706 442.042" stroke="black" stroke-width="2" stroke-linecap="round"/>
<path d="M131.043 318.299C130.761 336.617 128.155 354.663 119.92 371.133" stroke="black" stroke-width="2" stroke-linecap="round"/>
<path d="M125.481 323.861C125.481 346.417 120.453 367.255 115.749 389.208" stroke="black" stroke-width="2" stroke-linecap="round"/>
<path d="M125.481 412.845C133.989 421.49 142.196 430.43 150.508 439.262" stroke="black" stroke-width="2" stroke-linecap="round"/>
<path d="M129.652 418.406C134.98 421.684 138.434 429.909 142.089 434.782C146.51 440.677 151.448 446.296 156.379 451.775C162.025 458.049 169.178 463.749 176.925 467.069" stroke="black" stroke-width="2" stroke-linecap="round"/>
<path d="M182.487 474.021C159.634 461.993 144.205 436.841 134.055 414.003C130.529 406.07 128.778 405.68 133.36 413.771C144.777 433.933 158.884 452.747 172.754 471.24" stroke="black" stroke-width="2" stroke-linecap="round"/>
<path d="M213.075 442.042C220.59 431.636 225.564 419.217 232.54 408.364C236.69 401.908 239.335 394.869 242.273 387.818" stroke="black" stroke-width="2" stroke-linecap="round"/>
<path d="M225.588 337.764C225.588 335.669 225.798 341.131 225.897 341.627C227.4 349.139 230.738 356.537 233.313 363.718C238.747 378.877 243.975 394.093 253.396 407.283" stroke="black" stroke-width="2" stroke-linecap="round"/>
<path d="M253.396 397.55C253.933 403.463 256.176 408.99 256.176 415.007C256.176 420.903 254.958 426.467 254.786 432.31C254.626 437.766 248.828 443.621 244.976 446.831C232.115 457.549 222.833 468.587 213.075 482.363" stroke="black" stroke-width="2" stroke-linecap="round"/>
<path d="M240.882 448.994C240.996 447.862 242.751 444.628 241.964 443.742C240.629 442.24 234.486 449.162 233.93 449.844C230.279 454.325 226.793 458.703 222.807 462.898C220.557 465.267 222.101 465.222 223.657 462.589C230.487 451.031 238.996 439.663 248.143 429.838C249.952 427.895 254.874 422.46 250.615 428.139" stroke="black" stroke-width="2" stroke-linecap="round"/>
<path d="M247.834 432.31C252.093 428.051 257.073 423.317 260.348 418.406" stroke="black" stroke-width="2" stroke-linecap="round"/>
<path d="M240.882 398.941C247.762 409.441 255.267 420.879 260.348 432.31" stroke="black" stroke-width="2" stroke-linecap="round"/>
<path d="M250.615 393.379C258.529 394.962 275.497 409.341 277.032 417.016" stroke="black" stroke-width="2" stroke-linecap="round"/>
<path d="M115.749 404.502C115.749 411.681 108.824 421.923 112.968 428.139" stroke="black" stroke-width="2" stroke-linecap="round"/>
<path d="M220.027 282.149C223.885 279.148 224.086 308.559 223.889 311.347C223.03 323.467 221.417 335.327 221.417 347.497" stroke="black" stroke-width="2" stroke-linecap="round"/>
<path d="M217.246 255.732C212.537 255.732 212.993 247.138 216.165 244.918C218.437 243.327 220.062 250.739 216.551 248.008C213.19 245.394 215.44 241.242 217.246 245.305C217.925 246.833 217.278 251.112 214.465 249.862C210.547 248.121 212.649 242.947 215.083 245.382C216.715 247.014 216.178 251.505 213.075 249.862C210.773 248.643 210.942 243.352 214.465 244.918C216.851 245.979 218.482 249.674 218.482 252.256C218.482 256.558 210.987 250.138 216.165 246.618C223.726 241.476 222.026 260.984 215.238 252.256C209.84 245.317 223.838 244.815 217.864 250.789C211.094 257.559 210.144 237.357 214.465 246" stroke="black" stroke-width="2" stroke-linecap="round"/>
<path d="M174.144 326.641C169.645 320.856 205.609 318.527 196.081 329.113C189.879 336.005 179.337 334.161 172.059 330.117C164.538 325.939 173.305 328.693 176.925 330.504C183.414 333.748 183.723 327.834 188.743 326.719C191.276 326.156 192.277 326.461 189.439 327.723C186.947 328.83 183.76 326.641 181.096 326.641C179.968 326.641 192.499 326.641 183.877 326.641" stroke="black" stroke-width="2" stroke-linecap="round"/>
<path d="M256.176 219.583C256.176 205.534 290.266 216.412 296.497 218.192" stroke="black" stroke-width="2" stroke-linecap="round"/>
<path d="M253.396 233.486C269.451 247.758 289.656 243.431 306.23 233.486" stroke="black" stroke-width="2" stroke-linecap="round"/>
<path d="M87.9413 116.695C89.5029 104.202 104.724 95.9189 110.496 86.1069C112.706 82.3499 113.804 80.6891 111.887 76.3742C111.154 74.7255 110.187 67.305 110.187 72.2031" stroke="black" stroke-width="2" stroke-linecap="round"/>
<path d="M87.9413 113.914C88.2678 116.527 89.5546 113.944 89.0227 112.215C87.6698 107.818 85.8336 103.46 83.6929 99.3927C77.685 87.9776 67.6205 79.2026 60.1338 68.8044C55.0645 61.7637 46.3207 59.0079 40.3596 53.0469C38.4624 51.1497 33.1684 45.649 39.2782 47.1764" stroke="black" stroke-width="2" stroke-linecap="round"/>
<path d="M76.8183 69.4224C71.4727 68.7542 79.4195 52.9897 81.2984 51.0386C84.2469 47.9766 93.0122 39.8614 90.413 34.6631C89.3053 32.4476 81.9832 24.5203 84.0791 27.4022C86.9728 31.381 86.5509 40.7472 86.5509 45.786" stroke="black" stroke-width="2" stroke-linecap="round"/>
<path d="M76.8183 109.743C79.4661 110.037 85.1177 115.463 80.9894 113.605C74.4902 110.681 66.4995 108.155 59.5159 106.885C51.7324 105.47 42.059 100.373 42.059 91.6684" stroke="black" stroke-width="2" stroke-linecap="round"/>
<path d="M264.519 123.647C258.563 122.985 254.376 104.684 252.005 100.011C248.861 93.8117 244.233 88.4182 240.882 82.5537C239.475 80.091 242.395 74.1249 245.671 75.0611C247.735 75.6507 248.551 84.0851 249.225 86.1069" stroke="black" stroke-width="2" stroke-linecap="round"/>
<path d="M265.909 122.257C259.643 120.69 283.82 68.565 286.456 59.9987C286.947 58.4025 285.236 46.5419 282.902 48.8758C279.415 52.3636 278.646 64.3889 277.341 68.8044C274.433 78.6465 271.767 88.4964 270.08 98.6202" stroke="black" stroke-width="2" stroke-linecap="round"/>
<path d="M292.326 80.5454C280.926 90.5203 312.759 57.9967 324.614 48.5668C336.273 39.2922 330.39 35.8898 328.167 23.5401C326.901 16.5077 321.911 9.26351 321.524 2.68448C321.362 -0.0738204 318.466 4.29052 319.052 6.8556C321.098 15.8046 321.524 25.4767 321.524 34.6631" stroke="black" stroke-width="2" stroke-linecap="round"/>
<path d="M338.208 47.1764C346.549 39.6701 359.781 35.997 369.415 30.4919C369.752 30.2991 360.492 34.2047 357.983 35.7445C353.12 38.7284 345.495 41.1126 342.38 45.786" stroke="black" stroke-width="2" stroke-linecap="round"/>
<path d="M360.454 70.8128H370.187" stroke="black" stroke-width="2" stroke-linecap="round"/>
<path d="M370.187 66.6416C370.027 65.3606 369.736 65.7208 368.797 65.2513" stroke="black" stroke-width="2" stroke-linecap="round"/>
<path d="M147.727 202.898C148.32 202.898 140.955 198.907 139.385 197.337C129.85 187.802 123.345 176.137 117.834 163.891C116.435 160.781 114.562 156.311 114.358 152.845C114.289 151.674 116.751 158.866 117.371 160.106C123.947 173.259 130.755 185.166 140.08 196.564C143.571 200.83 132.601 187.276 131.352 184.823C125.792 173.91 121.981 162.329 116.83 151.454C107.833 132.46 134.49 193.499 153.289 202.898" stroke="black" stroke-width="2" stroke-linecap="round"/>
<path d="M217.246 207.069C217.246 226.435 238.102 172.21 238.102 152.845C238.102 149.012 238.156 152.208 238.102 154.235C237.924 160.805 235.637 167.807 233.621 174.009C231.178 181.528 228.606 188.95 225.588 196.255C224.624 198.59 222.81 204.295 221.417 200.117" stroke="black" stroke-width="2" stroke-linecap="round"/>
<path d="M225.588 193.166C225.588 195.926 225.426 198.751 225.588 201.508C225.84 205.793 231.458 191.912 231.768 190.926C235.41 179.335 239.492 165.085 239.492 152.845" stroke="black" stroke-width="2" stroke-linecap="round"/>
<path d="M240.882 150.064C240.882 161.626 240.675 173.184 242.273 184.669C243.11 190.685 245.053 196.84 245.053 202.898" stroke="black" stroke-width="2" stroke-linecap="round"/>
<path d="M247.834 205.679C248.304 209.44 248.795 206.717 247.834 203.593C246.004 197.645 243.185 192.767 241.964 186.523C240.682 179.974 236.711 171.586 236.711 165.358" stroke="black" stroke-width="2" stroke-linecap="round"/>
<path d="M171.364 227.925C173.797 228.466 176.269 231.951 178.316 233.486" stroke="black" stroke-width="2" stroke-linecap="round"/>
<path d="M174.144 225.144C177.527 225.482 178.623 228.079 181.096 229.315" stroke="black" stroke-width="2" stroke-linecap="round"/>
<path d="M175.535 220.973C175.673 220.004 183.713 225.602 185.267 226.535" stroke="black" stroke-width="2" stroke-linecap="round"/>
<path d="M185.267 219.583C183.275 217.839 190.517 226.223 192.219 227.925" stroke="black" stroke-width="2" stroke-linecap="round"/>
<path d="M185.267 218.192C183.936 218.192 189.681 221.675 190.829 222.363" stroke="black" stroke-width="2" stroke-linecap="round"/>
<path d="M182.487 240.438C179.903 240.115 186.323 228.259 188.048 226.535" stroke="black" stroke-width="2" stroke-linecap="round"/>
<path d="M176.925 233.486C179.732 229.978 180.971 224.511 185.267 222.363" stroke="black" stroke-width="2" stroke-linecap="round"/>
<path d="M176.925 227.925C176.925 222.351 181.198 219.176 182.487 214.021" stroke="black" stroke-width="2" stroke-linecap="round"/>
<path d="M168.583 222.363C168.583 217.883 171.296 216.869 174.144 214.021" stroke="black" stroke-width="2" stroke-linecap="round"/>
<path d="M171.364 216.802C171.571 214.932 172.875 213.9 174.144 212.631" stroke="black" stroke-width="2" stroke-linecap="round"/>
<path d="M217.246 271.026C218.932 271.026 222.034 268.598 221.34 271.722C220.132 277.158 215.729 281.48 214.774 287.402C212.843 299.376 209.284 311.068 206.895 323.011C206.01 327.438 204.133 332.395 206.123 336.374" stroke="black" stroke-width="2" stroke-linecap="round"/>
<path d="M214.465 289.101C212.926 302.957 213.316 315.452 215.856 329.422" stroke="black" stroke-width="2" stroke-linecap="round"/>
<path d="M125.481 279.369C133.823 281.644 142.493 298.739 146.337 305.786" stroke="black" stroke-width="2" stroke-linecap="round"/>
</svg>
