<svg width="121" height="81" viewBox="0 0 121 81" fill="none" xmlns="http://www.w3.org/2000/svg">
<path d="M115.75 68.25C118.13 67.9525 114.5 30.6761 114.5 27" stroke="black" stroke-width="3" stroke-linecap="round"/>
<path d="M114.5 29.5C114.5 25.5059 112.241 22.343 112 18.25C111.847 15.6483 110.715 10.6799 109.5 8.25" stroke="black" stroke-width="3" stroke-linecap="round"/>
<path d="M115.75 27C115.75 -13.8351 113.25 46.6709 113.25 4.5" stroke="black" stroke-width="3" stroke-linecap="round"/>
<path d="M10.75 12C1.19936 12 29.9175 11.8977 39.3611 10.4722C53.795 8.29352 69.2758 7 83.875 7C97.2148 7 57.2148 8.25 43.875 8.25C32.2996 8.25 21.0651 10.75 9.49999 10.75" stroke="black" stroke-width="3" stroke-linecap="round"/>
<path d="M3.25 14.5C3.25 27.047 4.5 39.7013 4.5 52C4.5 56.1499 5.75 59.9438 5.75 64.5C5.75 67.5979 2.33529 75.2926 5.75 77" stroke="black" stroke-width="3" stroke-linecap="round"/>
<path d="M7.00003 79.5C-15.6049 79.5 52.0479 75.5965 74.5 72.9722C85.4755 71.6894 98.6036 73.3039 109.222 70.4722C111.063 69.9813 120.821 69.5355 118.25 68.25" stroke="black" stroke-width="3" stroke-linecap="round"/>
<path d="M79.5 7C79.7654 4.87711 104.289 3.25 107.625 3.25C109.365 3.25 112.694 2 112.694 2C112.694 2 108.943 3.25 107 3.25C99.8633 3.25 92.7893 4.74438 85.75 5.75" stroke="black" stroke-width="3" stroke-linecap="round"/>
<path d="M2 13.25C7.67311 13.9591 11.1017 20.3899 15.75 22.9722C22.4853 26.714 27.6051 33.072 34.5 36.7222C40.0463 39.6585 60.7324 55.345 65.75 52" stroke="black" stroke-width="3" stroke-linecap="round"/>
<path d="M67 54.5C75.0473 45.4468 82.704 36.0517 90.75 27C94.748 22.5022 98.3202 18.1798 102.625 13.875C105.626 10.8738 116.427 4.24311 112.486 5.81944C102.576 9.78334 93.6656 21.751 85.75 28.875C79.0644 34.8921 69.7543 42.7414 65.75 50.75" stroke="black" stroke-width="3" stroke-linecap="round"/>
<path d="M7 17C9.23381 17.2482 21.583 25.5413 23.25 27.625C25.9862 31.0453 36.1349 34.9328 40.125 35.8194C44.2229 36.7301 51.7736 41.5185 54.7778 44.2222C57.3586 46.5449 70.9226 52.7155 62 54.5" stroke="black" stroke-width="3" stroke-linecap="round"/>
<path d="M2 75.75C7.1444 75.107 12.8056 63.8184 16.0278 60.4722C23.9618 52.2331 32.4998 43.3334 42 37" stroke="black" stroke-width="3" stroke-linecap="round"/>
<path d="M84.5 32C84.5 36.2038 119.767 61.2416 115.75 63.25" stroke="black" stroke-width="3" stroke-linecap="round"/>
<path d="M4.50004 60.75C3.95151 65.1382 5.16642 58.7876 6.37504 56.2361C8.40515 51.9503 12.647 46.6668 7.00004 52C2.35633 56.3857 2.24269 53.0384 5.12504 48.875C7.76389 45.0633 10.4925 43.5808 5.75004 42" stroke="black" stroke-width="3" stroke-linecap="round"/>
<path d="M42 74.5H40.75" stroke="black" stroke-width="3" stroke-linecap="round"/>
<path d="M40.75 74.5C39.6246 74.3392 48.3226 68.1775 49.5 67" stroke="black" stroke-width="3" stroke-linecap="round"/>
<path d="M73.25 69.5C67.927 70.1654 78.1255 65.75 80.75 65.75" stroke="black" stroke-width="3" stroke-linecap="round"/>
</svg>
