<svg width="442" height="210" viewBox="0 0 442 210" fill="none" xmlns="http://www.w3.org/2000/svg">
<path d="M117.527 138.278C109.1 139.121 100.481 145.17 100.942 130.405C101.824 102.204 122.469 77.2598 146.842 65.2404C155.858 60.7944 165.831 59.6134 174.817 55.3569C184.216 50.9051 192.441 46.1294 200.783 39.9453C204.086 37.496 213.75 29.9947 214.017 25.2038C214.227 21.4189 212.53 18.862 208.572 21.6021C198.549 28.541 180.623 42.2485 182.439 56.7808C182.971 61.0314 186.914 62.8952 190.648 62.8952C195.054 62.8952 196.133 61.9593 191.402 63.649C178.102 68.3989 165.922 91.7532 162.086 104.356C160.696 108.924 156.705 135.017 169.624 128.897C174.778 126.456 177.581 118.69 180.848 114.491C187.668 105.723 192.042 95.8652 199.778 87.6877C201.171 86.2145 208.459 76.3711 206.143 78.9768C201.78 83.8849 197.624 92.3771 197.432 99.0789C197.078 111.477 209.733 107.453 212.844 98.7439C217.101 86.8227 203.463 79.7391 203.463 90.7868C203.463 95.8397 209.848 91.2572 211.169 89.1116C214.847 83.1338 219.605 77.6395 223.816 72.0249C230.968 62.4894 226.759 84.5038 227.669 87.6877C228.393 90.2214 243.187 64.5703 244.923 64.5703C246.271 64.5703 235.765 96.384 241.154 99.0789" stroke="black" stroke-width="3" stroke-linecap="round"/>
<path d="M324.075 58.3722C323.529 62.7456 325.221 52.6605 325.751 51.3365C331.037 38.1212 338.614 23.5069 348.365 13.0588C349.511 11.8314 357.815 1.13375 360.594 1.75134C366.506 3.06512 353.247 23.8582 352.386 25.2038C346.253 34.7859 336.22 40.8665 330.19 49.9126C328.756 52.063 326.022 55.4778 330.776 51.5877C352.011 34.2137 382.329 23.6961 409.677 23.6961C411.409 23.6961 421.808 22.8528 418.22 27.4652C410.316 37.6283 386.541 41.7411 375.168 45.3058C366.697 47.961 355.607 52.3416 346.69 52.3416C339.692 52.3416 360.727 52.6988 367.63 53.8492C393.682 58.1912 425.392 65.5519 439.411 90.7868C441.862 95.1993 403.035 87.5875 400.798 87.0177C376.237 80.7614 353.186 70.1374 330.106 59.8799" stroke="black" stroke-width="3" stroke-linecap="round"/>
<path d="M66.2662 70.4334C69.3318 66.492 55.8227 62.4063 53.5349 61.7225C40.467 57.8172 25.4405 56.8968 12.2419 60.7174C8.82119 61.7076 -2.88114 65.943 3.61472 70.7685C13.4623 78.0839 27.8167 76.8831 39.3797 76.3803C48.8151 75.9701 58.3177 73.4488 67.6901 73.4488C74.9405 73.4488 61.4558 78.6163 59.5655 79.8144C29.6369 98.7833 10.7292 127.409 4.78734 162.4C3.97764 167.169 3.57127 171.839 9.3103 168.096C22.607 159.424 33.2 142.19 42.4787 129.818C45.4339 125.878 48.5076 122.2 50.8546 117.841C51.0169 117.54 54.0194 111.792 53.8699 111.81C47.9563 112.549 40.612 139.047 39.1284 142.968C32.932 159.345 27.7114 176.37 26.3971 193.894C25.9424 199.956 27.9527 212.903 35.6105 205.117C51.317 189.149 55.6078 162.786 59.4817 141.628C62.6953 124.078 64.2983 106.236 66.2662 88.5253" stroke="black" stroke-width="3" stroke-linecap="round"/>
</svg>
