<svg width="220" height="307" viewBox="0 0 220 307" fill="none" xmlns="http://www.w3.org/2000/svg">
<path d="M209.556 102.26L213.472 100.301" stroke="black" stroke-width="3" stroke-linecap="round"/>
<path d="M210.833 104.953C208.156 104.618 204.87 95.6082 203.881 93.8297" stroke="black" stroke-width="3" stroke-linecap="round"/>
<path d="M80.5492 106.647C72.396 106.194 64.4772 101.084 57.7101 108.31C36.5182 130.939 71.208 162.293 94.9182 159.131C129.272 154.551 126.88 116.11 111.102 93.7902C100.349 78.5778 84.7979 77.9778 73.2891 92.8827C68.9626 98.4858 64.5953 105.826 63.609 112.999C62.2753 122.699 70.6678 126.713 76.4654 132.511" stroke="black" stroke-width="2" stroke-linecap="round"/>
<path d="M102.33 180.155C98.5068 175.908 100.48 171.591 98.9264 166.618C94.0191 150.915 95.5232 179.709 95.5232 184.088C95.5232 211.422 91.1825 240.54 96.2038 267.655C98.2951 278.947 101.97 266.077 97.8676 265.462C89.0598 264.14 63.9687 289.275 72.0791 292.082C86.8279 297.187 96.7955 266.343 100.363 256.689C100.894 255.253 100.301 249.959 102.33 252.605C108.651 260.851 116.55 267.642 124.261 274.537C127.268 277.225 131.466 282.8 135 284.671C139.751 287.186 129.916 274.552 129.555 274.083" stroke="black" stroke-width="2" stroke-linecap="round"/>
<path d="M57.4076 196.491C40.4947 196.491 91.299 195.974 108.077 193.844C114.351 193.047 132.414 193.345 126.757 190.516C120.333 187.304 106.203 192.669 99.607 193.768" stroke="black" stroke-width="2" stroke-linecap="round"/>
<path d="M46.5174 286.334C49.2531 286.334 47.9703 286.343 46.1393 285.351C38.6649 281.303 33.2327 274.937 27.989 268.411C20.4086 258.978 14.2344 248.965 8.02373 238.614C4.53923 232.807 4.15351 233.688 9.15812 237.782C17.599 244.689 26.9561 249.194 37.7448 250.941C39.1207 251.164 53.9632 254.379 51.8113 249.731C47.8466 241.168 40.0811 233.951 34.871 226.136C34.2523 225.208 25.8766 209.386 25.0396 214.036C23.1777 224.38 34.7265 238.185 29.8041 220.464C26.4694 208.459 19.9072 197.693 14.9057 186.357C13.2274 182.552 13.9948 186.864 14.1494 189.23C14.6129 196.321 14.9871 203.737 17.1745 210.557C19.5856 218.074 19.0701 206.079 18.9895 205.112C17.7617 190.378 15.7507 175.399 12.6369 160.946C10.2255 149.754 3.33445 117.341 1.14175 128.578C0.0382645 134.234 5.56764 146.601 11.1244 148.695C23.8317 153.483 15.7133 105.491 14.6032 101.05C13.0525 94.8474 13.3427 108.503 14.1494 110.655C15.9587 115.479 23.3492 124.02 25.1152 114.209C27.6461 100.149 13.5483 58.4712 18.5358 71.8586C19.28 73.8564 25.0146 87.3799 27.4597 86.6813C31.8955 85.4139 29.0012 67.2493 28.8209 65.0522C28.0727 55.9329 27.0841 46.8523 26.174 37.7512C25.9717 35.7286 26.4275 42.391 27.7622 43.7257C31.4725 47.436 38.6807 44.3413 41.5261 41.1544C43.4532 38.996 44.5349 31.8158 46.0637 36.5412C48.7947 44.9824 52.7168 54.3483 59.5251 60.3634C70.074 69.6832 73.9173 50.131 74.4991 43.4232C75.6648 29.9835 73.4614 15.6559 69.2053 2.88753C66.1319 -6.33266 77.4443 20.8462 84.028 27.9954C89.9789 34.4574 103.241 47.9589 113.447 42.7425C120.228 39.2766 120.911 28.7787 121.312 22.1722C121.536 18.4758 121.604 21.4006 121.992 23.3066C123.356 29.9966 125.203 36.4772 127.967 42.7425C131.439 50.6139 142.007 72.4451 153.226 61.7247C160.339 54.9279 162.657 43.7707 164.343 34.4993C166.262 23.947 164.948 44.821 164.948 46.5995C164.948 49.1161 164.261 81.3875 166.007 81.3875C168.035 81.3875 164.982 69.1848 163.133 74.7324C160.298 83.2377 166.067 95.9315 169.107 103.622C170.427 106.959 180.369 121.696 172.284 114.209C165.967 108.361 164.977 110.578 163.436 118.066C161.948 125.291 156.946 136.197 157.915 143.628C158.973 151.744 181.884 123.093 182.04 136.443C182.105 142.063 176.809 155.226 180.678 159.887C185.857 166.125 203.313 155.958 208.509 154.14C216.863 151.216 215.854 152.276 210.324 157.997C201.897 166.715 188.428 177.092 183.855 188.701C181.109 195.67 203.067 184.245 205.408 182.953C209.045 180.947 220.693 171.094 213.5 180.685C207.156 189.143 199.963 196.807 193.081 204.809C184.868 214.359 204.671 202.705 207.299 201.331C214.416 197.608 224.047 192.223 214.71 203.297C209.249 209.773 201.149 214.49 196.257 221.296C193.67 224.896 194.951 231.471 194.745 235.438C194.252 244.923 191.495 253.272 186.275 261.227C182.295 267.29 174.802 275.896 165.326 278.696C149.616 283.338 177.725 273.367 173.267 277.411C163.991 285.823 150.074 288.113 139.538 294.502C128.585 301.143 148.911 304.181 152.697 305.392" stroke="black" stroke-width="2" stroke-linecap="round"/>
<path d="M71.0797 125.023C71.0797 123.449 84.4449 126.566 86.1643 126.613C87.0214 126.636 87.8876 126.562 88.7432 126.631C88.8546 126.639 90.3346 126.874 90.3329 126.86C90.2892 126.511 86.2727 125.338 85.7051 125.023" stroke="black" stroke-width="2" stroke-linecap="round"/>
<path d="M97.7869 125.341C97.0019 125.341 96.9728 125.26 97.5926 124.599C99.498 122.567 101.614 120.687 103.757 118.912C104.493 118.303 106.844 117.157 107.149 116.156C107.646 114.522 104.215 117.924 102.874 118.982" stroke="black" stroke-width="2" stroke-linecap="round"/>
<path d="M99.6946 123.433C98.9873 122.883 98.8561 124.247 98.8821 124.705C99.0096 126.959 101.8 128.417 103.757 128.485C105.155 128.534 107.176 127.878 107.396 126.224C107.629 124.469 105.615 122.989 104.358 122.197C103.555 121.691 102.195 120.957 101.178 121.031C100.394 121.089 102.225 122.781 102.238 122.798" stroke="black" stroke-width="2" stroke-linecap="round"/>
<path d="M80.618 130.428C80.61 130.029 80.7934 128.374 80.3 128.097C79.9159 127.881 80.1712 131.358 80.1764 131.4C80.5473 134.367 82.2433 137.218 85.7051 136.01C88.6609 134.978 90.3566 131.643 89.4674 128.697C89.2093 127.842 86.9274 124.359 87.2948 126.931" stroke="black" stroke-width="2" stroke-linecap="round"/>
<path d="M82.5256 140.602V140.92" stroke="black" stroke-width="2" stroke-linecap="round"/>
<path d="M105.418 136.151C104.486 136.151 106.157 142.674 106.301 143.711C106.455 144.826 106.455 146.091 106.354 147.209C106.245 148.404 104.307 148.2 103.475 148.304C100.125 148.722 96.9173 147.864 93.795 146.643C92.4076 146.101 91.1109 145.758 89.6794 145.372C87.4558 144.771 87.9874 144.967 90.1563 144.1" stroke="black" stroke-width="2" stroke-linecap="round"/>
<path d="M104.782 133.608C104.656 134.99 103.473 135.782 102.379 136.451C98.7225 138.69 94.7644 140.524 90.9335 142.439C89.3925 143.21 87.8009 143.887 86.5176 145.054C85.7113 145.787 85.835 145.69 86.9768 145.69" stroke="black" stroke-width="2" stroke-linecap="round"/>
<path d="M88.8845 146.325C91.1409 144.865 94.4026 144.433 96.9744 143.8C100.894 142.835 104.258 142.004 107.961 140.284" stroke="black" stroke-width="2" stroke-linecap="round"/>
<path d="M59.9516 138.695C56.942 138.208 53.9234 137.95 50.8726 138.059C48.2552 138.152 56.1154 138.853 58.7152 138.536C61.6139 138.182 55.7958 135.916 55.0589 135.498C53.5753 134.656 52.185 133.659 50.7843 132.689C50.6818 132.618 48.3586 131.04 49.0356 131.135C51.4749 131.475 55.2755 132.817 57.6201 131.806C59.2203 131.116 51.3641 126.496 50.7136 126.101C48.9515 125.029 47.2559 123.855 45.4322 122.886C44.7428 122.52 42.7185 122.099 43.4009 121.72C44.0776 121.344 46.0523 121.933 46.704 122.02C49.631 122.413 52.5479 122.884 55.5004 123.045C58.1976 123.192 59.2582 122.385 57.6907 119.724C56.5937 117.862 51.946 113.362 53.7164 114.602C56.2027 116.342 59.4134 117.896 62.4069 118.435C66.7415 119.215 62.1679 113.382 61.3294 112.164C60.3425 110.731 56.7372 107.03 58.1853 107.996C60.4872 109.53 63.3203 110.647 66.0632 111.14C68.1424 111.513 67.1313 107.789 66.8581 106.724C66.3466 104.729 65.6105 102.83 64.6325 101.018C64.2903 100.385 63.3381 99.0425 64.0496 100.683C64.8521 102.533 66.9472 105.5 68.9247 106.265C70.5333 106.886 67.3221 98.844 67.123 98.3336C66.4973 96.7292 65.938 95.0842 65.233 93.5115C64.8951 92.7577 64.9199 93.1389 65.3214 93.6528C67.471 96.4043 71.2207 99.5624 74.6477 100.542C76.7305 101.137 76.4847 95.8106 76.4847 94.8186C76.4847 92.9986 76.3302 91.1938 76.2374 89.3782C76.2065 88.7727 75.9068 86.2634 77.0499 87.6825C79.4475 90.6588 81.0837 94.9274 84.2037 97.2385C86.0407 98.5992 86.8866 90.0032 86.9768 89.0956C87.1517 87.3376 87.2622 85.5494 86.9768 83.7965C86.7378 82.3282 87.0542 84.0622 87.1888 84.4324C87.946 86.5146 88.8386 88.5671 89.8383 90.544C90.4537 91.7608 91.7286 94.9328 93.3004 95.2955C95.3534 95.7693 96.5465 88.7098 96.7801 87.6295C96.9538 86.8262 97.151 84.3701 97.151 85.1919C97.151 87.9318 97.384 90.7075 97.8576 93.4055C98.4787 96.9442 99.5553 100.152 103.369 97.4681C105.009 96.3136 106.164 94.7068 106.866 92.8402C107.389 91.4491 108.788 87.4516 107.696 88.4597C106.206 89.8349 104.691 95.4183 105.63 97.3798C106.042 98.2432 106.98 96.7731 107.149 96.4966C108.27 94.6567 108.473 92.4283 108.915 90.3674" stroke="black" stroke-width="2" stroke-linecap="round"/>
<path d="M115.592 115.485C117.543 112.071 120.534 109.401 122.339 105.805C122.779 104.928 125.012 99.1756 122.057 102.131C120.263 103.925 119.16 106.267 118.347 108.631C118.056 109.478 118.217 108.782 118.277 108.596C118.892 106.662 119.811 104.831 120.467 102.908C121.756 99.1285 122.099 95.3738 121.809 91.3918C121.721 90.1733 121.628 88.653 121.014 87.5412C120.428 86.4782 119.421 89.4151 119.354 89.5548C118.269 91.8336 117.496 95.1089 115.804 97.0265C115.47 97.4043 115.277 90.9319 115.274 90.5087C115.266 89.4917 115.55 80.4951 114.179 80.2991C112.897 80.1161 112.499 90.2356 112.448 91.2505C112.428 91.6456 112.294 95.6534 112.094 93.2112C111.724 88.6727 111.315 83.9165 109.798 79.5926C108.832 76.8378 108.062 76.9434 107.149 79.6279C106.328 82.0395 106.82 84.6936 106.036 87.0466C105.867 87.5525 104.194 83.4908 104.075 83.143C103.689 82.0116 101.904 73.4674 99.9419 75.3534C97.3733 77.8219 97.0035 82.7255 96.6565 86.0221C96.6458 86.1236 96.6825 88.2026 96.4622 88.4597C96.31 88.6372 96.083 88.1791 95.9323 88.0004C94.6339 86.4616 96.173 88.2371 94.5015 86.2871C92.1448 83.5376 89.7913 80.6829 87.1358 78.2148C86.7211 77.8294 84.59 75.4169 83.6914 76.7311C82.386 78.6405 83.2067 82.4739 83.6208 84.5031C84.0184 86.4514 84.863 90.9255 86.7649 92.169C87.1671 92.432 86.7377 91.195 86.5882 90.7383C86.0186 88.9977 85.1651 87.3593 84.2567 85.7748C84.0726 85.4537 81.9802 81.5536 81.4128 81.9948C80.5088 82.698 80.5799 85.1697 80.6886 86.1634C80.8786 87.8999 80.2849 86.8333 79.2755 85.8455C77.7224 84.3254 75.46 81.4826 73.0227 81.5886C70.776 81.6863 70.3936 84.7679 71.2386 86.3401C73.5318 90.6064 78.7116 92.3594 82.8789 94.112C85.9645 95.4097 80.0618 94.5479 79.4169 94.5006C74.4477 94.1365 69.48 93.7401 64.5088 93.4055C63.8575 93.3616 59.5564 93.2809 59.9516 93.4231C62.6114 94.3806 65.8609 94.3542 68.3242 95.7724C70.3658 96.9479 63.8279 98.6493 63.6257 98.7045C59.1353 99.9306 54.4203 100.893 49.7598 101.16C47.9755 101.262 50.7814 101.026 50.9962 101.001C51.597 100.93 57.5199 99.8087 57.6907 100.188C58.0548 100.997 53.525 103.921 53.0275 104.286C51.5216 105.393 46.6972 108.022 48.5233 107.625C51.0951 107.066 53.6169 106.151 56.1717 105.505C57.0684 105.278 58.6675 104.06 58.8918 104.957C59.0504 105.592 55.4108 108.033 55.1825 108.208C52.37 110.357 49.1062 112.228 46.5627 114.708C45.7936 115.458 50.2382 114.039 50.6783 113.913C51.6824 113.626 55.2003 112.168 53.5751 114.496C51.5179 117.443 48.485 119.76 45.6795 121.95C42.3629 124.538 49.4677 119.033 48.9649 121.861C48.3177 125.502 43.6122 128.668 40.981 130.799C40.1984 131.433 34.8034 135.388 38.7907 133.466C39.6354 133.059 50.5065 128.214 49.7421 132.036C49.5558 132.967 48.7139 133.645 47.9051 134.049C47.5196 134.242 47.438 134.162 47.8698 133.82C49.2392 132.733 50.8708 131.939 52.5683 131.523C56.1549 130.645 55.849 132.737 53.8047 135.056C52.4719 136.568 50.8342 137.794 49.2829 139.066C49.0197 139.281 46.7393 140.776 46.7393 141.309C46.7393 141.939 47.9317 140.897 48.5057 140.638C50.1435 139.897 51.786 139.192 53.4868 138.606C54.4337 138.28 55.868 137.635 56.9135 137.635C58.8373 137.635 53.7599 139.841 52.1444 140.885C50.1324 142.186 48.2317 143.611 46.4037 145.16C45.5126 145.914 43.0792 147.538 44.1958 147.88C45.1446 148.171 46.963 147.43 47.8168 147.191C51.4312 146.179 55.0253 145.086 58.6799 144.223C59.0793 144.129 62.2446 143.122 62.9191 143.676C63.4024 144.073 62.0269 144.559 61.5237 144.93C59.9766 146.072 58.666 147.425 57.4081 148.869C56.3703 150.06 60.2021 147.392 61.612 146.679C62.9356 146.009 64.2776 145.343 65.6393 144.753C66.7326 144.28 63.6162 146.014 62.5835 146.608C60.4587 147.831 58.3239 149.037 56.1717 150.211C55.5313 150.561 53.6953 151.699 54.211 151.183C55.3997 149.994 57.2833 149.137 58.6799 148.233" stroke="black" stroke-width="2" stroke-linecap="round"/>
<path d="M117.499 118.982C120.643 117.458 124.12 114.191 126.084 111.281C126.732 110.321 127.107 109.267 127.656 108.261C128.004 107.622 126.122 110.852 125.748 111.334C125.669 111.437 123.04 114.63 122.798 114.001C122.216 112.487 125.503 108.137 126.119 106.936C127.134 104.956 128.173 102.855 128.716 100.683C129.102 99.1387 126.147 103.569 125.925 103.88C124.845 105.392 123.763 107.648 122.233 108.773C121.082 109.619 123.142 106.055 123.752 104.763C125.079 101.955 126.49 99.2536 127.285 96.2316C127.927 93.7927 128.079 92.7059 126.19 95.1012C124.626 97.0844 123.28 99.3055 121.633 101.213C120.056 103.039 123.003 96.5861 123.682 94.271C124.578 91.2157 125.516 87.9518 125.695 84.7504C125.847 82.039 122.026 86.9074 121.703 87.3292C120.488 88.9186 119.299 91.9164 117.57 93.0169C116.778 93.5208 116.867 89.1232 116.864 88.8836C116.812 85.7143 116.586 82.5687 115.715 79.5043C115.19 77.6566 113.913 74.2291 112.43 77.4906C111.202 80.1927 111.174 83.2516 111.141 86.1634C111.122 87.7816 111.422 89.4057 110.752 86.976C110.001 84.2526 108.524 81.6049 106.725 79.4336C104.327 76.5396 102.228 78.0248 100.737 80.9527C99.5272 83.3269 99.0587 85.7875 99.0587 88.4244C99.0587 89.3551 99.2256 84.8329 99.094 84.1145C98.4425 80.5577 96.7315 76.7964 94.4485 73.9933C91.5917 70.4855 90.5082 73.7737 90.3506 76.6428C90.1781 79.7814 90.5465 82.9262 91.0395 86.0221C91.2275 87.2028 91.774 88.8564 90.5096 86.9406C89.3406 85.1695 83.9038 73.7025 80.9536 76.3249C78.9878 78.0722 78.5414 82.2337 78.6043 84.6444C78.6756 87.3759 79.5053 89.852 80.6886 92.275C81.4817 93.8989 80.2011 92.4701 79.7701 91.9924C77.6505 89.643 75.8238 86.731 73.27 84.821C71.2354 83.2994 69.5641 83.3374 69.119 86.1104C68.6046 89.3158 70.5148 91.845 72.7047 93.9884C72.7131 93.9966 74.6152 95.6549 73.7999 94.6066C72.388 92.7913 71.0461 90.9349 69.6666 89.0956C69.4976 88.8702 67.3607 85.8258 67.1054 86.3931C66.2505 88.2928 66.4164 91.3068 66.5931 93.2995C66.7497 95.0647 67.3283 96.3555 68.3065 97.7684C69.0566 98.8518 66.535 95.8166 65.6746 94.8186C64.433 93.3783 63.3024 91.8278 61.9653 90.4733C60.3807 88.8682 60.0806 88.9552 60.7288 91.2152C61.383 93.4959 62.5163 95.5405 63.9083 97.4504C64.1699 97.8093 66.418 100.086 65.8336 99.623C62.4636 96.9551 58.9356 93.525 54.9705 91.7628C53.2004 90.976 54.6576 94.9536 54.8292 95.3838C56.0844 98.5306 58.5136 100.769 61.2588 102.626C63.1275 103.89 62.0186 102.697 61.0998 101.902C58.4109 99.5747 55.2919 97.2183 52.0207 95.7901C50.2087 94.9989 49.0809 95.616 49.1062 97.6801C49.1516 101.38 51.151 104.763 53.8401 107.183C54.0559 107.377 56.9042 109.813 57.3021 109.515C57.8443 109.108 53.9369 107.49 53.7694 107.466C51.6539 107.159 49.0547 107.341 47.1279 108.349C45.5889 109.154 51.5309 109.358 51.8618 109.373C52.1405 109.386 57.3815 109.669 57.0548 110.045C56.0775 111.168 53.7476 111.967 52.4976 112.553C50.1596 113.648 47.7683 114.623 45.3616 115.556C43.898 116.123 43.6785 116.196 42.3411 116.686C41.8712 116.858 40.5448 117.077 40.981 117.322C42.4589 118.153 47.0855 116.397 48.5057 116.121" stroke="black" stroke-width="2" stroke-linecap="round"/>
<path d="M88.5666 129.474C87.3783 129.405 86.9887 128.544 86.023 128.061C84.1418 127.121 84.35 130.673 84.451 131.682C84.6838 134.011 87.5856 132.695 87.86 130.993C88.0267 129.96 88.2064 128.201 87.5951 127.284C86.7337 125.992 88.2696 126.962 89.2025 127.249" stroke="black" stroke-width="2" stroke-linecap="round"/>
<path d="M101.602 123.116C99.1305 129.648 110.863 123.767 106.053 121.844" stroke="black" stroke-width="2" stroke-linecap="round"/>
<path d="M85.7051 144.418C86.1971 144.527 86.2371 144.956 86.341 145.372" stroke="black" stroke-width="2" stroke-linecap="round"/>
<path d="M86.9768 146.007C86.7106 144.943 84.4547 146.399 83.974 146.661C82.8903 147.252 84.774 148.876 85.2281 149.505C88.0938 153.473 94.1784 150.569 97.3983 148.622C97.9975 148.259 100.747 146.175 98.6348 146.997C95.2919 148.297 91.5215 149.845 87.913 150.123C87.6537 150.143 85.9512 150.229 86.3056 149.54C87.4981 147.221 91.6798 146.495 93.8479 145.742C95.0653 145.32 96.2914 144.924 97.5043 144.488C97.9156 144.341 98.9535 143.771 98.7761 144.17C98.6683 144.413 97.4408 144.766 97.3453 144.806C95.5406 145.57 93.8047 146.446 91.9403 147.067C90.4187 147.574 86.0534 149.337 87.2948 148.321C90.0986 146.027 94.7031 144.747 97.9989 143.429C99.5714 142.8 101.161 142.227 102.786 141.751C102.94 141.705 105.382 141.097 105.064 141.415C102.52 143.959 98.2532 145.32 94.9608 146.573C91.7968 147.777 97.1281 144.992 97.7339 144.736C98.291 144.5 105.826 141.979 104.004 144.029C101.411 146.947 95.9432 148.354 92.3466 149.381C89.0024 150.337 91.9283 146.939 92.8765 146.043C95.1932 143.854 97.9528 141.643 101.072 140.744C101.357 140.662 102.836 140.249 102.468 141.185C101.838 142.784 99.1638 143.64 97.7693 144.223C97.2368 144.446 89.9391 147.433 90.4036 145.266C91.069 142.16 95.8845 140.527 98.5111 140.055C99.1822 139.934 100.935 139.538 101.638 140.037C102.439 140.607 99.2902 142.252 99.2707 142.263C97.6036 143.185 95.8446 143.958 94.0776 144.665C93.192 145.019 91.0603 146.167 90.015 145.76C88.3243 145.103 102.303 138.305 97.7339 142.616C95.6105 144.619 92.9235 146.098 90.2446 147.226C87.8104 148.251 91.4157 146.266 91.8873 146.007C94.391 144.634 97.6988 143.11 100.631 143.234C102.933 143.332 96.2814 146.917 95.7026 147.209C95.3916 147.365 91.0704 149.674 92.2052 148.339C94.3528 145.812 97.6951 143.745 100.966 143.128C107.023 141.987 100.847 151.435 98.4581 148.781C95.9975 146.047 102.151 140.977 104.322 140.108C105.108 139.794 102.963 141.739 102.167 141.45C101.21 141.102 104.247 137.108 104.499 136.822C106.395 134.672 105.918 138.74 105.859 139.825C105.699 142.805 104.354 145.498 104.146 148.41C104.126 148.68 105.649 145.469 105.877 144.877C106.703 142.728 107.713 139.659 107.255 137.317C107.045 136.245 105.845 140.019 105.806 140.214C105.611 141.188 104.706 145.565 106.389 145.901C108.574 146.338 110.732 135.826 106.548 141.592C105.375 143.207 102.558 148.408 103.969 146.997C104.889 146.077 105.236 143.634 105.577 142.386C106.143 140.308 102.541 141.128 101.072 141.256C96.1772 141.682 92.4779 145.242 88.1426 147.173C86.8508 147.749 82.9998 149.441 84.3803 149.134C86.6856 148.622 89.0874 147.189 91.2514 146.255C93.8706 145.125 96.511 143.801 99.2177 142.899C99.282 142.877 95.6877 144.176 94.8901 144.488C92.6844 145.352 90.0403 146.996 87.6481 147.262C87.0667 147.326 86.9563 147.089 86.6589 146.643" stroke="black" stroke-width="2" stroke-linecap="round"/>
</svg>
