<svg width="122" height="122" viewBox="0 0 122 122" fill="none" xmlns="http://www.w3.org/2000/svg">
<path d="M80.0736 119.013C80.9087 118.254 81.9466 117.869 82.9351 117.352C85.0324 116.257 86.9986 114.78 88.8171 113.272C92.7721 109.992 97.3184 107.493 100.722 103.592C107.566 95.7501 113.358 87.1456 116.955 77.3621C120.004 69.0694 117.721 60.5225 114.412 52.7215C111.071 44.8478 107.399 36.6672 101.976 29.9532C97.5542 24.4781 91.8792 19.3601 86.3618 14.9745C84.2345 13.2836 82.1324 11.9941 79.8263 10.594C78.937 10.054 77.6844 10.2318 76.6822 10.0994C74.2668 9.78039 71.8708 9.27095 69.4402 9.07493C61.0734 8.40019 51.6493 8.27158 43.6514 11.2475C35.2588 14.3704 28.4521 19.3975 22.6495 26.1909C19.5851 29.7785 16.8074 33.2588 14.0827 37.0893C11.8928 40.1678 9.33267 43.0168 7.44118 46.2743C6.0023 48.7524 4.20212 51.7142 3.8025 54.6115C3.2508 58.6113 3.76717 62.9889 3.76717 67.029C3.76717 71.2852 3.97435 75.7664 5.35689 79.835C6.89144 84.351 8.82501 88.5381 10.7619 92.8707C12.8012 97.4321 15.8459 100.423 19.2757 103.999C22.0044 106.843 24.9679 108.484 28.1782 110.676C32.2779 113.474 37.5942 114.968 42.2913 116.328C49.1598 118.316 56.3214 119.649 63.5052 119.649C65.8392 119.649 68.0777 118.712 70.3233 118.2C72.7972 117.637 75.3325 117.526 77.8127 116.964C80.3735 116.383 82.9754 116.091 85.5493 115.515C88.2999 114.9 89.0779 114.429 86.1145 113.29" stroke="black" stroke-width="3" stroke-linecap="round"/>
<path d="M72.125 118.695C72.1487 118.713 73.6339 114.769 73.8737 114.049C74.581 111.927 74.6676 109.956 75.0572 107.814C75.7192 104.173 74.0374 101.117 73.3261 97.6399C72.7492 94.8191 72.4828 90.8032 70.4646 88.5608C70.215 88.2835 68.4794 87.2345 68.9986 88.0132C70.2784 89.933 75.0887 87.5451 76.3819 86.9181C83.6915 83.374 91.6796 75.6974 91.8375 67.0113C91.9267 62.1054 90.7181 57.4823 89.3646 52.8805C88.8472 51.1211 85.7457 49.1731 86.7681 47.2988C88.4927 44.137 89.4305 40.6818 88.817 37.001C88.5959 35.6739 88.3328 34.2867 87.6336 33.168C87.0077 32.1666 85.1787 33.2068 84.8428 33.9628C84.3248 35.1281 82.5097 36.3332 81.522 37.054C79.6947 38.3874 77.7359 39.5822 75.8167 40.7633C74.8784 41.3407 73.8631 41.922 73.0788 42.7063C71.7303 44.0548 71.4413 43.9064 69.8994 43.0949C67.1659 41.6562 63.8295 41.7525 60.7497 41.7525C56.2332 41.7525 52.3623 41.9527 48.1379 43.6425C46.6865 44.223 46.6673 43.4744 46.1243 42.3883C45.5964 41.3325 44.2863 40.42 43.4924 39.5268C41.0773 36.8099 37.3709 36.0295 33.9718 36.0295C33.3377 36.0295 31.4282 35.6495 31.4282 36.5417C31.4282 39.3764 31.5425 42.126 31.9935 44.9319C32.4139 47.548 33.5053 48.925 34.7313 51.1318C35.0416 51.6903 33.8939 51.6158 33.6538 51.6794C32.7419 51.9208 31.9039 52.7945 31.3576 53.5164C29.9514 55.3746 29.876 57.4949 29.5206 59.7163C29.1021 62.3317 28.5668 65.0324 28.5668 67.6825C28.5668 70.6894 28.714 73.9367 30.3154 76.5496C32.041 79.365 34.422 82.0145 36.9746 84.0566C41.3462 87.5539 46.8673 90.0799 52.5715 90.0799C54.2652 90.0799 52.1278 89.4166 51.388 89.444C48.9217 89.5353 48.741 94.9694 47.9613 96.6154C47.5199 97.5473 46.7756 98.6519 45.8947 99.1413C44.7133 99.7976 44.9296 98.173 44.146 97.7812C41.7505 96.5834 38.8002 97.6537 36.3564 95.9618C34.8984 94.9524 33.7519 93.9951 32.9473 92.3055C32.2578 90.8575 32.313 89.0232 31.5519 87.501C29.7714 83.9401 26.9671 84.0389 23.3207 84.0389C23.0353 84.0389 20.4415 84.2957 20.4415 84.6748C20.4415 85.882 24.7106 87.4777 25.4933 88.0132C27.9021 89.6614 28.5365 93.0221 29.7679 95.4849C31.2495 98.4481 32.9676 100.548 36.374 101.137C39.371 101.656 42.4595 100.89 45.4178 100.89C45.9337 100.89 47.6128 100.165 47.6434 100.961C47.7023 102.494 47.7528 104.156 47.4844 105.659C46.9717 108.53 45.4178 110.965 45.4178 113.926C45.4178 114.536 45.3924 115.153 45.4178 115.763C45.4355 116.189 47.1342 112.74 47.3254 112.336" stroke="black" stroke-width="3" stroke-linecap="round"/>
<path d="M45.7357 102.48C45.5025 101.547 41.2829 101.573 40.684 101.544C40.2196 101.52 35.831 101.208 37.6988 101.208C39.5337 101.208 41.5038 101.07 43.1922 101.914C44.0618 102.349 44.977 101.324 45.7357 100.89" stroke="black" stroke-width="3" stroke-linecap="round"/>
<path d="M5.03894 78.9519C4.91383 77.8259 4.13573 76.6282 3.92613 75.4545C3.39795 72.4966 2.21475 69.3241 2.17744 66.3401C2.12408 62.0713 1.587 57.1604 2.68969 53.0041C3.86336 48.5803 5.18091 44.5383 7.26454 40.4807C9.40419 36.314 12.1839 32.6759 15.0895 29.0171C16.8215 26.836 19.0402 25.1048 21.0421 23.1881C22.9672 21.3449 24.1181 18.9298 26.3412 17.4121C32.8253 12.9855 39.7531 9.8602 47.1665 7.41456C53.244 5.40959 59.3116 3.73863 65.7661 4.23513" stroke="black" stroke-width="3" stroke-linecap="round"/>
<path d="M80.0736 116.151C82.957 113.969 86.1442 111.896 88.6757 109.298C91.4192 106.482 94.9092 104.506 97.8078 101.844C100.639 99.2438 102.978 96.1356 105.774 93.4889C108.434 90.9712 111.083 88.4164 113.387 85.558C117.492 80.4659 118.582 74.379 119.64 68.1418C120.672 62.058 121.046 55.3286 118.086 49.6304C115.083 43.8527 112.618 37.7658 108.194 32.9207C105.454 29.9198 102.356 27.3736 99.5212 24.4775C97.2765 22.184 95.0715 19.7917 92.4381 17.942C85.7604 13.2518 79.0847 8.05882 71.7718 4.37643C67.5542 2.2527 62.9672 1.55342 58.2592 2.27447C55.2918 2.72893 52.1382 3.70186 49.4627 5.06531C45.672 6.99712 45.3942 10.4299 44.146 14.0914" stroke="black" stroke-width="3" stroke-linecap="round"/>
<path d="M72.443 118.377C76.2795 114.348 77.848 108.221 77.848 102.798C77.848 98.9725 77.5108 95.501 74.6686 92.6587C73.281 91.2711 71.6548 90.2106 70.5353 88.5608C70.3333 88.2631 69.0492 85.9923 69.1752 85.9643C71.4949 85.4488 73.9963 85.7183 76.3289 85.1694C79.4669 84.4311 82.1439 82.6412 85.0371 81.3364C87.6029 80.1793 89.3112 78.8183 90.813 76.4083C94.1981 70.9764 93.6826 65.5624 90.8837 60.0165C89.6877 57.6467 88.4353 55.6605 88.0045 53.0041C87.6691 50.9353 87.2263 50.3033 85.8673 48.9945C84.6433 47.8159 85.73 47.1132 86.5915 46.027C87.9517 44.3119 88.6629 42.1377 88.9054 39.9861C89.1016 38.2443 88.826 36.4883 89.135 34.7577C89.3139 33.7557 89.5303 32.3101 88.4991 31.7372C87.4403 31.149 86.3232 32.481 85.5846 33.062C82.932 35.1487 80.8868 37.8355 78.1483 39.8271C75.6626 41.6349 72.7257 42.5476 70.3587 44.5433C70.0594 44.7956 68.4228 47.165 68.1507 47.1045C67.6033 46.9828 67.2595 45.4805 67.0379 45.0732C66.3111 43.7373 65.0736 43.3771 63.6819 43.0242C61.0647 42.3607 58.6543 43.1393 56.1395 43.9604C54.0615 44.6389 51.8094 45.1117 49.869 46.133C49.4316 46.3632 48.9921 46.7803 48.4206 46.4686C47.7446 46.0999 47.3145 45.3341 46.6189 44.9319C45.2326 44.1304 43.6942 43.8573 42.203 43.3422C41.3159 43.0357 40.714 41.8293 40.154 41.1166C39.0676 39.7338 38.5199 37.997 37.3985 36.6654C36.8989 36.0721 33.0473 31.8706 31.9582 32.7617C31.1059 33.459 31.1271 36.9792 31.1103 37.9371C31.0607 40.7674 31.1145 43.3656 32.2231 46.0094C33.3237 48.6339 33.6677 51.3169 34.2898 54.0816C34.6238 55.566 35.0988 57.0578 35.8795 55.1061" stroke="black" stroke-width="3" stroke-linecap="round"/>
<path d="M35.2436 58.2855C33.6781 57.4567 32.9865 56.6846 31.6049 58.6741C29.1508 62.2081 29.2027 67.2191 29.2027 71.3212C29.2027 76.6512 32.8616 81.231 36.9746 84.3569C39.1432 86.005 42.0693 86.5438 44.4993 87.713C46.0845 88.4757 47.5589 89.2306 49.0565 90.1505C51.4463 91.6186 53.6937 93.1721 56.0512 94.6724C56.706 95.0891 54.9935 94.1448 54.7618 94.0542C53.2037 93.4445 51.5764 93.1183 49.9396 92.8001C47.5703 92.3394 43.1093 92.5713 42.6269 95.6262C42.2712 97.879 42.4861 100.481 43.1215 102.656C44.0068 105.687 44.7514 103.812 45.7357 101.844" stroke="black" stroke-width="3" stroke-linecap="round"/>
</svg>
