<svg width="82" height="71" viewBox="0 0 82 71" fill="none" xmlns="http://www.w3.org/2000/svg">
<path d="M33.3102 52.7565C32.0908 51.162 28.858 47.1371 26.1794 48.734C22.882 50.6997 22.4239 56.7172 23.8634 59.8264C26.0564 64.5634 32.16 66.6242 36.9671 65.2507C47.6898 62.1871 48.0734 50.435 38.6431 44.9552C36.4929 43.7058 29.2416 40.6131 26.8498 43.0049C23.0898 46.7649 28.6382 52.2709 30.5676 54.9506" stroke="black" stroke-width="3" stroke-linecap="round"/>
<path d="M54.7028 23.6846C52.9937 22.1179 50.9203 19.8639 49.0956 22.2828C43.6232 29.5368 49.5557 36.1708 57.3844 36.9102C66.0049 37.7243 69.903 28.7377 63.7839 22.7704C60.7048 19.7676 56.262 19.4825 52.3563 20.8201C48.3913 22.1779 48.0527 24.0246 47.0234 27.5243" stroke="black" stroke-width="3" stroke-linecap="round"/>
<path d="M62.3821 68.6638C58.6784 68.6638 62.9858 58.1038 64.2715 56.7181C67.1753 53.5884 71.3792 52.208 75.5468 52.208C76.5685 52.208 77.7277 52.2936 78.716 51.9642C80.5752 51.3445 79.2185 50.4802 78.8379 49.4653" stroke="black" stroke-width="3" stroke-linecap="round"/>
<path d="M3.14122 35.7522C-0.811475 34.764 11.2996 35.1556 15.3612 35.4779C19.1293 35.777 20.8141 36.0093 23.9852 34.1066" stroke="black" stroke-width="3" stroke-linecap="round"/>
<path d="M37.1499 2.84056C37.8167 2.09044 38.2616 0.512708 37.9422 2.38346C37.2299 6.55556 37.1703 10.8091 37.1499 15.0301C37.1278 19.6022 36.6816 24.5201 37.4546 29.048C37.8861 31.5753 39.041 28.1303 39.344 27.5243" stroke="black" stroke-width="3" stroke-linecap="round"/>
</svg>
