<svg width="305" height="198" viewBox="0 0 305 198" fill="none" xmlns="http://www.w3.org/2000/svg">
<path d="M60.9102 116.429C61.6861 115.826 61.6237 116.416 60.8063 115.599C60.2461 115.039 59.9093 114.587 59.5088 113.886C58.6475 112.379 57.4607 110.968 56.6022 109.422C54.7058 106.009 52.3381 102.868 50.3998 99.3791C48.4439 95.8585 47.0541 92.1132 45.7285 88.4016C43.8661 83.1869 40.8105 77.3919 40.3565 71.7926C40.0353 67.8304 38.0209 63.9944 38.0209 60.0106C38.0209 58.2429 37.5538 56.7123 37.5538 55.002C37.5538 54.0454 37.9723 53.3078 38.0209 52.4328C38.0984 51.0372 37.9417 51.1954 39.1887 51.4725C42.502 52.2088 46.4751 52.2974 49.6991 53.7303C51.2544 54.4216 53.377 54.491 55.0451 54.7943C56.7625 55.1066 59.0994 56.1698 60.7025 56.1698C62.8615 56.1698 64.8408 57.464 66.9828 57.5712C68.9449 57.6693 71.3763 58.2864 73.2631 58.9725C78.2897 60.8004 83.4554 62.7679 88.5745 64.4743C92.731 65.8598 97.7174 67.8888 101.446 70.1836C103.661 71.5463 105.91 72.7526 108.09 74.1542C110.338 75.5991 112.186 77.6115 114.396 79.085C116.371 80.4013 118.127 82.4652 119.768 84.1974C122.9 87.5028 125.836 90.9199 128.41 94.6818C132.485 100.637 135.58 106.842 138.661 113.367C142.843 122.222 147.377 131.947 148.237 141.836C148.495 144.807 147.991 148.724 148.834 151.568C149.408 153.507 149.197 155.578 149.197 157.588C149.197 159.873 150.293 161.096 148.263 159.405" stroke="black" stroke-width="5" stroke-linecap="round"/>
<path d="M115.564 72.5192C115.564 66.9984 114.887 61.7086 116.265 56.1957C118.26 48.2135 119.526 40.253 123.246 32.8134C125.351 28.6025 126.993 24.3551 129.344 20.175C130.083 18.8613 131.014 16.9797 132.017 15.893C132.908 14.9281 134.434 13.3574 135.08 12.2598C136.448 9.93358 139.125 7.52348 141.464 6.18713C142.193 5.7705 145.515 3.32984 143.592 5.25287" stroke="black" stroke-width="5" stroke-linecap="round"/>
<path d="M143.125 3.38437C145.235 3.64812 146.999 7.35129 148.626 8.52277C151.194 10.3716 152.542 13.6501 154.699 15.893C156.996 18.2823 158.572 21.3596 160.772 23.8342C162.881 26.2078 163.621 29.5202 165.287 32.1387C168.644 37.4138 170.896 43.4726 173.592 49.1629C174.972 52.0761 175.679 55.368 176.654 58.4016C177.705 61.6726 178.64 65.8524 179.067 69.2753C179.999 76.7317 180.591 84.3951 179.586 91.931C179.103 95.5563 178.638 99.2309 178.185 102.857C177.749 106.348 177.259 111.612 175.823 114.82C172.681 121.846 170.863 129.493 167.208 136.282C164.78 140.791 161.737 144.063 158.073 147.727" stroke="black" stroke-width="5" stroke-linecap="round"/>
<path d="M185.166 77.1905C186.416 77.1905 188.503 75.2552 189.37 74.3877C190.873 72.8854 192.857 71.9536 194.405 70.5469C197.34 67.8785 200.915 65.2604 204.552 63.6438C213.659 59.5963 223.248 54.5984 233.306 53.3411C237.843 52.774 241.986 51.9656 246.619 51.9656C248.369 51.9656 250.144 52.4327 251.965 52.4327C253.914 52.4327 252.955 53.9163 251.861 55.1317C249.715 57.5171 249.249 62.0932 247.969 65.0192C246.11 69.2671 244.631 74.2697 243.453 78.8514C242.081 84.1876 240.65 90.1811 238.419 95.2009C235.693 101.334 234.559 107.595 230.945 113.419C226.903 119.931 222.859 126.851 217.398 132.312C214.981 134.728 212.79 137.377 210.131 139.552C207.888 141.387 205.716 143.98 203.176 145.365C198.299 148.026 194.089 152.401 189.37 155.434C185.843 157.702 181.577 159.521 177.588 160.703C174.335 161.666 170.933 161.037 167.649 161.767C165.179 162.315 161.73 162.402 159.474 161.273" stroke="black" stroke-width="5" stroke-linecap="round"/>
<path d="M230.01 131.377C230.01 128.428 242.007 129.482 243.557 129.509C248.247 129.591 252.426 131.038 257 131.377C260.286 131.621 265.506 133.542 268.055 135.581C270.399 137.457 274.172 138.152 276.827 139.786C279.687 141.545 282.635 143.381 285.598 145.028C287.504 146.087 291.339 149.137 292.502 150.997C293.444 152.504 295.375 154.107 296.706 155.305C298.118 156.575 300.933 158.471 297.744 158.471" stroke="black" stroke-width="5" stroke-linecap="round"/>
<path d="M3.92062 158.471C3.2656 158.377 6.94028 155.379 7.19051 154.941C7.80612 153.864 9.61264 152.765 10.694 152.164C13.6654 150.514 16.5518 148.702 19.5694 147.026C26.1898 143.348 34.1444 139.116 41.5244 137.476C44.6335 136.785 47.7656 136.245 50.8669 135.555C54.2384 134.806 58.0697 134.988 61.4032 133.946C64.8032 132.884 69.7019 133.713 73.289 133.713C75.1575 133.713 77.0261 133.713 78.8946 133.713C80.8362 133.713 82.6637 134.647 84.5001 134.647C87.7529 134.647 92.2602 135.631 95.2181 136.983C99.1997 138.803 104.025 139.017 108.09 140.824C110.662 141.967 114.519 142.479 116.602 144.353C117.521 145.18 119.54 145.848 120.702 146.429C121.725 146.941 122.881 148.058 123.972 148.194C126.455 148.504 129.762 151.963 131.914 153.228C134.287 154.624 137.619 156.494 139.491 158.367C141.012 159.888 143.516 161.959 145.564 162.779C147.965 163.739 150.357 167.346 152.934 167.346" stroke="black" stroke-width="5" stroke-linecap="round"/>
<path d="M152 166.879C152.113 167.781 155.513 169.717 156.308 170.512C158.043 172.247 159.485 174.104 161.239 175.858C162.764 177.384 164.091 179.045 166.014 180.062C168.402 181.327 170.921 182.166 173.254 183.462C178.764 186.523 185.652 187.77 191.81 189.664C198.522 191.73 205.239 192.943 212.259 193.946C219.228 194.942 225.84 194.439 232.813 194.439C242.193 194.439 250.614 191.118 259.336 188.004C265.454 185.818 271.729 183.337 277.294 179.959C281.564 177.366 286.55 174.997 290.477 171.784C293.07 169.663 295.683 167.353 297.744 164.777C298.366 163.999 302.783 158.953 301.481 162.208" stroke="black" stroke-width="5" stroke-linecap="round"/>
<path d="M2.51923 160.806C2.51923 163.241 7.28545 166.877 9.08496 168.047C14.4388 171.527 19.0256 176.117 24.9673 178.791C39.0617 185.133 55.2249 187.481 70.4863 188.808C77.3856 189.408 84.5157 187.767 91.2734 186.602C98.0346 185.436 104.859 183.994 111.36 181.827C116.324 180.172 120.368 177.78 124.907 175.391C126.534 174.535 127.692 173.549 129.266 172.588C131.098 171.471 131.416 170.666 130.045 172.952" stroke="black" stroke-width="5" stroke-linecap="round"/>
<path d="M74.685 126.757C72.0923 125.317 69.8964 122.384 67.8997 120.221C64.5578 116.6 61.1383 113.085 57.8774 109.389" stroke="black" stroke-width="3" stroke-linecap="round"/>
<path d="M154.241 169.896C155.369 170.009 156.125 170.763 157.073 171.297C159.564 172.698 162.43 173.641 165.073 174.69C172.395 177.596 179.919 180.016 187.296 182.782" stroke="black" stroke-width="3" stroke-linecap="round"/>
<path d="M190.658 183.342C197.082 184.511 203.275 186.593 209.831 187.14C213.863 187.476 217.991 187.264 222.032 187.264" stroke="black" stroke-width="3" stroke-linecap="round"/>
<path d="M234.357 187.825C242.817 187.011 251.171 185.755 259.569 184.463" stroke="black" stroke-width="3" stroke-linecap="round"/>
<path d="M10.8161 171.017C17.3902 177.591 23.4822 184.349 31.8878 188.665C43.6548 194.707 54.8893 195.877 67.962 195.108" stroke="black" stroke-width="3" stroke-linecap="round"/>
<path d="M59.5582 195.108C62.602 195.108 65.4728 196.228 68.709 196.228C72.546 196.228 76.2629 195.072 79.9763 194.174C90.3949 191.653 100.574 186.698 110.541 182.782" stroke="black" stroke-width="3" stroke-linecap="round"/>
<path d="M160.964 32.6343C162.084 38.2357 164.075 43.6424 165.197 49.2551C166.1 53.7718 166.006 58.3066 166.006 62.888" stroke="black" stroke-width="3" stroke-linecap="round"/>
<path d="M176.651 70.7315C176.651 75.7066 176.517 80.596 175.966 85.5471C174.99 94.3351 171.578 101.83 168.247 109.949" stroke="black" stroke-width="3" stroke-linecap="round"/>
<path d="M252.846 53.3636C251.391 53.3636 250.638 58.1897 250.044 59.5264" stroke="black" stroke-width="3" stroke-linecap="round"/>
<path d="M251.165 57.8457C249.214 58.0895 247.803 75.9111 247.803 78.2638C247.803 82.9273 246.81 87.4443 246.683 92.0212C246.434 100.977 243.42 108.632 239.4 116.672" stroke="black" stroke-width="3" stroke-linecap="round"/>
<path d="M242.761 105.467C242.105 106.661 241.3 107.715 240.52 108.829" stroke="black" stroke-width="3" stroke-linecap="round"/>
<path d="M238.279 114.992C236.593 115.975 235.587 118.511 234.326 119.972C231.574 123.158 228.367 126.024 225.393 128.998" stroke="black" stroke-width="3" stroke-linecap="round"/>
<path d="M234.918 118.913C234.51 120.035 233.134 120.898 232.303 121.652C229.311 124.369 226.227 126.939 223.152 129.558" stroke="black" stroke-width="3" stroke-linecap="round"/>
<path d="M188.416 74.6533C192.602 72.5607 196.399 69.6154 200.431 67.2455C206.328 63.7787 212.53 60.8503 218.67 57.8457" stroke="black" stroke-width="3" stroke-linecap="round"/>
<path d="M180.573 80.8161C195.016 66.6941 211.089 57.8829 230.996 54.4842" stroke="black" stroke-width="3" stroke-linecap="round"/>
<path d="M187.856 75.7738C202.306 61.3239 222.479 53.209 242.761 52.2431" stroke="black" stroke-width="3" stroke-linecap="round"/>
<path d="M246.683 57.2854C246.443 59.6854 245.127 62.3341 244.317 64.5687C240.685 74.5889 239.387 84.8742 237.719 95.3827" stroke="black" stroke-width="3" stroke-linecap="round"/>
<path d="M236.038 97.0634C234.894 97.7913 234.382 99.5993 233.797 100.736C232.255 103.732 230.511 106.633 228.817 109.545C226.522 113.49 223.43 116.698 220.351 120.034" stroke="black" stroke-width="3" stroke-linecap="round"/>
<path d="M60.6787 111.07C54.3692 94.9605 48.746 80.0084 46.1121 62.888" stroke="black" stroke-width="3" stroke-linecap="round"/>
</svg>
