<svg width="484" height="351" viewBox="0 0 484 351" fill="none" xmlns="http://www.w3.org/2000/svg">
<path d="M110.974 134.064C116.687 151.204 128.854 166.655 133.22 184.117" stroke="black" stroke-width="2" stroke-linecap="round"/>
<path d="M94.2896 107.647C102.188 129.461 113.172 150.376 122.869 171.449C124.913 175.89 127.277 188.793 131.83 191.069" stroke="black" stroke-width="2" stroke-linecap="round"/>
<path d="M85.9473 107.647C115.819 86.6104 145.996 65.5117 179.334 50.2552C185.284 47.5324 191.319 45.2283 197.177 42.2992" stroke="black" stroke-width="2" stroke-linecap="round"/>
<path d="M201.348 40.9088C201.829 37.0597 205.717 43.6556 206.137 44.3075C216.644 60.6206 225.714 78.3993 234.872 95.5196C243.686 111.998 252.961 127.858 262.525 143.796" stroke="black" stroke-width="2" stroke-linecap="round"/>
<path d="M142.953 199.411C166.367 184.856 190.208 170.954 213.553 156.31C224.424 149.49 235.978 138.615 248.621 135.454" stroke="black" stroke-width="2" stroke-linecap="round"/>
<path d="M85.9473 106.256C105.209 86.995 123.369 66.8124 142.953 47.8607" stroke="black" stroke-width="2" stroke-linecap="round"/>
<path d="M194.396 42.2991C200.253 38.6002 203.012 31.7431 206.987 26.3099C211.958 19.5157 217.072 12.8212 222.204 6.14944" stroke="black" stroke-width="2" stroke-linecap="round"/>
<path d="M259.744 141.016C259.697 141.009 270.495 114.261 272.257 110.736C277.053 101.145 283.162 92.4955 287.551 82.62" stroke="black" stroke-width="2" stroke-linecap="round"/>
<path d="M234.717 14.4917C254.076 39.0015 271.669 64.6881 290.332 89.5718" stroke="black" stroke-width="2" stroke-linecap="round"/>
<path d="M140.172 50.6414C161.405 34.0245 185.405 21.1027 206.91 4.75909" stroke="black" stroke-width="2" stroke-linecap="round"/>
<path d="M162.418 147.968C164.152 153.602 164.226 156.31 158.169 156.31C151.311 156.31 149.214 151.762 146.506 145.959C145.407 143.604 144.97 136.999 149.209 136.999C153.874 136.999 161.562 143.219 163.731 147.195C169.472 157.721 155.754 156.984 150.986 150.748C147.612 146.337 146.811 143.871 147.124 138.235C147.595 129.753 158.462 141.447 159.637 143.796" stroke="black" stroke-width="2" stroke-linecap="round"/>
<path d="M202.739 120.16C195.459 120.16 191.822 113.008 195.787 106.565C200.784 98.444 208.626 107.912 212.471 112.436C217.047 117.819 212.616 124.481 206.137 121.241C201.828 119.087 196.391 110.61 198.567 106.256" stroke="black" stroke-width="2" stroke-linecap="round"/>
<path d="M199.958 124.331C191.041 118.758 199.478 103.167 209.691 109.732C219.706 116.171 211.913 128.431 202.739 121.55" stroke="black" stroke-width="2" stroke-linecap="round"/>
<path d="M227.765 154.919C228.833 147.448 230.847 170.391 228.461 177.552C227.769 179.625 226.145 183.546 224.676 185.199C224.586 185.3 224.985 181.002 224.985 179.946" stroke="black" stroke-width="2" stroke-linecap="round"/>
<path d="M252.792 142.406C251.751 134.077 250.011 159.039 250.011 167.433" stroke="black" stroke-width="2" stroke-linecap="round"/>
<path d="M244.45 141.016C244.45 135.543 245.742 149.071 245.917 150.825C246.509 156.746 246.772 163.276 248.621 168.823" stroke="black" stroke-width="2" stroke-linecap="round"/>
<path d="M248.621 143.796C248.621 148.661 250.011 152.768 250.011 157.7" stroke="black" stroke-width="2" stroke-linecap="round"/>
<path d="M195.787 189.679C207.949 184.466 221.666 185.567 234.563 185.508C250.952 185.432 267.122 184.533 283.38 182.727" stroke="black" stroke-width="2" stroke-linecap="round"/>
<path d="M187.445 193.85C215.894 185.864 244.912 193.85 273.648 193.85" stroke="black" stroke-width="2" stroke-linecap="round"/>
<path d="M244.45 147.967C245.236 155.826 245.84 163.521 245.84 171.604C245.84 172.51 247.685 153.13 245.84 166.042" stroke="black" stroke-width="2" stroke-linecap="round"/>
<path d="M240.279 182.727C246.279 178.726 258.611 182.07 264.919 183.422C273.856 185.337 282.637 187.38 291.722 188.288" stroke="black" stroke-width="2" stroke-linecap="round"/>
<path d="M294.503 189.679C294.503 182.139 293.493 204.726 292.804 212.234C291.858 222.532 290.332 233.663 290.332 243.903" stroke="black" stroke-width="2" stroke-linecap="round"/>
<path d="M293.113 204.973C293.113 197.297 293.744 198.083 293.19 205.282C292.003 220.717 288.767 235.944 287.629 251.319C286.814 262.319 284.771 273.133 284.771 284.224" stroke="black" stroke-width="2" stroke-linecap="round"/>
<path d="M291.723 221.657C293.86 226.199 293.078 230.235 292.031 234.943C290.539 241.661 292.832 248.907 291.414 255.644C289.506 264.705 291.181 273.876 288.942 282.834" stroke="black" stroke-width="2" stroke-linecap="round"/>
<path d="M312.578 198.021C316.012 199.27 317.725 203.476 319.53 206.363" stroke="black" stroke-width="2" stroke-linecap="round"/>
<path d="M294.503 186.898C308.146 194.244 320.283 203.966 332.198 213.778C340.377 220.514 340.344 218.335 331.271 211.461C322.205 204.593 303.463 191.687 303.463 191.687C303.463 191.687 318.416 201.746 325.091 207.754" stroke="black" stroke-width="2" stroke-linecap="round"/>
<path d="M341.776 217.486C339.996 218.153 339.322 222.952 338.995 224.747C337.138 234.959 334.562 244.951 332.043 255.026" stroke="black" stroke-width="2" stroke-linecap="round"/>
<path d="M332.043 253.636C329.835 266.519 326.46 279.563 325.091 292.566C324.711 296.185 324.807 283.292 325.091 281.443" stroke="black" stroke-width="2" stroke-linecap="round"/>
<path d="M330.653 241.122C330.653 239.468 330.47 247.152 330.344 248.074C329.017 257.76 326.674 267.438 325.091 277.118C323.388 287.538 324.19 305.736 318.14 314.812" stroke="black" stroke-width="2" stroke-linecap="round"/>
<path d="M325.091 277.272C322.455 293.678 320.767 309.866 316.749 325.935" stroke="black" stroke-width="2" stroke-linecap="round"/>
<path d="M286.161 287.005C298.477 297.268 304.177 314.889 311.497 328.716C315.691 336.638 303.348 312.728 298.674 305.08" stroke="black" stroke-width="2" stroke-linecap="round"/>
<path d="M284.771 288.395C284.324 286.385 282.386 285.548 284.771 288.704C289.597 295.093 294.276 301.791 298.674 308.478C306.097 319.764 313.47 331.891 319.53 344.01" stroke="black" stroke-width="2" stroke-linecap="round"/>
<path d="M184.664 199.411C184.664 218.918 184.664 238.364 184.664 257.807" stroke="black" stroke-width="2" stroke-linecap="round"/>
<path d="M188.835 238.342C188.979 250.428 191.616 262.617 191.616 274.491" stroke="black" stroke-width="2" stroke-linecap="round"/>
<path d="M275.038 282.834C276.352 282.834 280.352 283.245 277.201 281.752C270.015 278.348 261.044 278.938 253.41 277.89C240.844 276.165 228.773 273.748 216.102 273.024C209.009 272.619 201.262 272.037 194.396 270.32" stroke="black" stroke-width="2" stroke-linecap="round"/>
<path d="M186.054 273.101C186.054 258.132 186.759 243.969 189.607 229.227C190.314 225.57 193.867 200.335 191.616 216.096" stroke="black" stroke-width="2" stroke-linecap="round"/>
<path d="M187.445 277.272C185.775 279.359 204.441 308.484 206.91 313.422" stroke="black" stroke-width="2" stroke-linecap="round"/>
<path d="M190.225 281.443L193.006 288.395" stroke="black" stroke-width="2" stroke-linecap="round"/>
<path d="M205.519 287.005C203.245 286.499 202.759 283.557 204.979 287.314C208.249 292.848 211.055 298.618 214.325 304.153C221.323 315.996 211.638 301.499 209.073 297.201C207.122 293.932 204.838 289.259 202.121 286.541C199.39 283.81 206.692 292.769 209.073 295.81C212.467 300.148 215.634 305.844 218.033 310.641" stroke="black" stroke-width="2" stroke-linecap="round"/>
<path d="M201.348 275.882C231.088 276.797 256.397 283.783 283.38 295.347" stroke="black" stroke-width="2" stroke-linecap="round"/>
<path d="M204.129 273.101C218.652 274.138 233.397 278.533 247.54 281.752C257.623 284.048 268.017 285.128 277.819 288.395" stroke="black" stroke-width="2" stroke-linecap="round"/>
<path d="M269.477 285.614C269.477 296.341 275.09 304.534 278.9 314.194C280.214 317.526 281.453 322.886 284.771 324.545" stroke="black" stroke-width="2" stroke-linecap="round"/>
<path d="M266.696 287.005C280.439 301.557 287.404 322.156 297.825 338.989C298.325 339.797 302.276 345.904 300.065 342.311C295.321 334.602 291.043 326.655 286.161 318.983" stroke="black" stroke-width="2" stroke-linecap="round"/>
<path d="M281.99 306.47C290.635 318.796 299.429 331.002 307.017 344.01" stroke="black" stroke-width="2" stroke-linecap="round"/>
<path d="M202.739 316.203C205.659 320.584 218.571 318.982 222.976 319.292C235.817 320.197 248.376 322.729 260.825 325.935C274.558 329.472 287.816 335.039 301.455 338.449" stroke="black" stroke-width="2" stroke-linecap="round"/>
<path d="M216.642 323.154C237.834 323.154 259.782 327.062 280.754 330.106C289.41 331.363 298.722 332.903 307.017 335.668" stroke="black" stroke-width="2" stroke-linecap="round"/>
<path d="M205.519 323.154C194.83 321.017 198.568 298.467 198.568 291.176" stroke="black" stroke-width="2" stroke-linecap="round"/>
<path d="M197.177 303.689C197.28 308.84 197.931 313.893 198.567 318.983" stroke="black" stroke-width="2" stroke-linecap="round"/>
<path d="M219.423 300.909C219.423 292.705 217.471 317.265 215.252 325.163C213.044 333.02 206.91 356.342 206.91 348.181" stroke="black" stroke-width="2" stroke-linecap="round"/>
<path d="M216.642 309.251C216.927 308.362 219.448 300.68 218.342 303.998C215.881 311.382 215.415 320.691 214.171 328.407C213.03 335.476 213.706 333.407 215.252 327.48C216.781 321.618 220.813 304.12 220.813 310.178C220.813 318.315 220.265 327.598 218.728 335.591C216.417 347.607 220.359 326.57 221.122 323.927C221.941 321.094 226.586 304.277 226.066 307.397C225.23 312.415 224.735 317.385 224.289 322.459C224.014 325.595 225.043 333.993 222.976 336.749C221.167 339.161 223.703 330.761 224.212 327.789C225.553 319.956 228.006 312.312 230.469 304.771C234.246 293.204 233.67 299.398 231.859 307.397C228.901 320.463 226.598 333.53 222.358 346.25C219.818 353.873 224.181 330.028 227.456 322.691C230.808 315.184 230.546 334.138 230.546 336.44C230.546 346.811 231.621 329.927 231.936 327.248C235.181 299.666 226.756 343.124 230.546 341.229" stroke="black" stroke-width="2" stroke-linecap="round"/>
<path d="M258.354 316.203C258.354 310.348 260.281 322.817 260.439 323.927C260.95 327.502 262.37 331.776 262.37 335.359C262.37 340.4 259.908 325.573 259.049 320.606C255.675 301.114 258.564 326.136 259.744 331.96C260.415 335.272 261.134 342.002 261.134 342.002C261.134 342.002 261.177 335.307 261.134 331.96C261.052 325.528 259.744 319.315 259.744 312.881C259.744 305.061 263.089 328.225 265.923 335.513C268.035 340.944 268.086 325.686 268.086 323.155C268.086 319.782 268.086 316.409 268.086 313.036C268.086 309.114 269.916 320.663 270.867 324.468C271.35 326.398 273.648 339.804 273.648 333.66C273.648 326.178 268.912 304.568 272.257 311.259C276.518 319.781 275.977 330.653 279.827 339.453C282.165 344.797 280.006 327.655 278.591 321.996C276.597 314.02 285.369 337.087 287.242 345.092C289.773 355.905 284.499 333.491 283.689 331.033C281.173 323.393 276.144 306.315 281.99 324.854C284.213 331.905 285.833 339.436 288.942 346.173C289.896 348.241 290.835 349.63 288.942 346.791" stroke="black" stroke-width="2" stroke-linecap="round"/>
<path d="M159.637 154.919C150.206 154.919 156.332 143.472 159.328 150.748C160.154 152.754 156.231 154.457 154.848 152.679C153.136 150.479 151.764 144.811 154.385 142.715C155.842 141.549 160.898 147.309 158.865 147.89C155.952 148.723 152.095 144.625 150.986 142.406C147.483 135.4 162.936 144.606 157.938 149.049C155.238 151.449 143.987 131.462 155.157 139.625C161.971 144.605 162.721 152.618 152.685 149.667C140.497 146.082 153.549 135.048 157.165 145.496C160.178 154.2 152.685 155.076 152.685 146.577" stroke="black" stroke-width="2" stroke-linecap="round"/>
<path d="M206.91 124.331C202.841 124.331 194.794 115.551 201.657 115.216C208.762 114.87 209.686 125.025 206.215 124.254C202.316 123.387 195.485 116.81 197.872 112.513C200.608 107.589 209.352 119.72 209.691 122.941C210.625 131.823 199.565 116.492 198.568 114.908C193.653 107.102 205.716 110.781 208.841 115.294C211.866 119.664 210.516 125.451 205.519 120.16C201.495 115.898 202.137 108.355 208.918 113.903C210.508 115.204 214.842 126.157 210.386 124.177C208.157 123.186 200.002 110.427 204.129 110.427C206.721 110.427 214.025 116.959 210.772 119.851C207.902 122.402 199.025 113.346 200.035 109.809C201.182 105.795 210.926 115.277 210.926 117.997C210.926 123.224 199.381 118.598 198.259 115.68C194.926 107.016 205.489 110.235 208.918 114.599C212.61 119.297 211.929 122.398 206.91 117.379" stroke="black" stroke-width="2" stroke-linecap="round"/>
<path d="M304.236 231.39C306.803 228.502 306.798 222.421 304.545 230.308C303.208 234.989 304.142 241.263 301.455 245.294" stroke="black" stroke-width="2" stroke-linecap="round"/>
<path d="M301.455 243.903C307.546 243.142 313.498 248.844 319.53 250.855" stroke="black" stroke-width="2" stroke-linecap="round"/>
<path d="M323.701 250.855C323.701 247.119 331.535 229.745 329.263 228.609" stroke="black" stroke-width="2" stroke-linecap="round"/>
<path d="M309.797 224.438C308.724 224.438 315.983 227.807 317.522 228.686C320.682 230.492 327.434 231.106 329.803 233.475C335.058 238.73 315.456 229.569 308.407 227.219" stroke="black" stroke-width="2" stroke-linecap="round"/>
<path d="M304.236 225.828C303.87 232.414 296.914 239.004 297.284 245.294C297.576 250.25 313.588 253.13 316.749 255.026" stroke="black" stroke-width="2" stroke-linecap="round"/>
<path d="M301.455 246.684C308.564 247.395 314.846 254.582 321.538 256.494C325.881 257.735 332.043 241.114 332.043 236.951" stroke="black" stroke-width="2" stroke-linecap="round"/>
<path d="M325.091 248.074C325.998 245.24 326.77 242.487 327.872 239.732" stroke="black" stroke-width="2" stroke-linecap="round"/>
<path d="M309.797 238.342C316.621 230.76 321.348 220.534 327.486 212.311C341.061 194.125 356.349 177.886 372.364 161.871" stroke="black" stroke-width="2" stroke-linecap="round"/>
<path d="M319.53 234.171C320.318 230.231 324.903 225.974 327.254 222.893C333.551 214.642 340.535 206.912 347.183 198.948C355.317 189.204 363.683 179.745 372.055 170.213C374.225 167.743 379.801 161.387 373.755 167.433" stroke="black" stroke-width="2" stroke-linecap="round"/>
<path d="M318.14 234.171C333.612 216.765 381.88 166.259 365.412 182.727" stroke="black" stroke-width="2" stroke-linecap="round"/>
<path d="M325.091 228.609C339.4 211.618 383.9 162.076 368.193 177.783C361.792 184.184 356.75 192.073 351.509 199.411" stroke="black" stroke-width="2" stroke-linecap="round"/>
<path d="M319.53 236.951C317.378 236.644 324.698 231.182 325.4 230.463C332.799 222.896 338.869 213.438 345.638 205.282C353.132 196.253 361.239 187.859 369.429 179.483C370.679 178.204 374.931 174.527 370.974 177.165" stroke="black" stroke-width="2" stroke-linecap="round"/>
<path d="M313.969 234.171C326.939 211.472 347.02 191.387 365.412 172.994" stroke="black" stroke-width="2" stroke-linecap="round"/>
<path d="M315.359 232.78C330.596 214.122 346.552 196.491 362.632 178.556" stroke="black" stroke-width="2" stroke-linecap="round"/>
<path d="M365.412 177.165C365.412 168.929 356.127 162.265 369.506 172.299C376.004 177.172 382.1 179.662 386.963 170.909C389.941 165.548 378.041 162.284 374.836 159.399C368.548 153.741 361.241 164.641 361.241 170.213" stroke="black" stroke-width="2" stroke-linecap="round"/>
<path d="M382.097 149.358C381.148 150.648 373.607 160.42 378.235 153.992C382.92 147.484 388.681 140.702 394.301 134.991C395.342 133.933 402.318 125.876 403.57 125.876C407.271 125.876 399.874 132.305 397.7 135.3C392.976 141.809 387.49 148.34 382.328 154.533C381.391 155.658 377.922 160.848 380.243 156.464C386.557 144.538 396.302 135.152 405.733 125.722" stroke="black" stroke-width="2" stroke-linecap="round"/>
<path d="M380.706 161.871C388.162 148.654 400.086 136.566 410.986 126.031C412.822 124.255 414.222 123.877 412.067 126.648C407.347 132.717 402.912 138.914 398.472 145.187C395.157 149.871 391.703 154.273 387.658 158.318C384.488 161.489 389.127 155.481 389.667 154.919C392.35 152.127 406.967 134.685 400.172 146.577" stroke="black" stroke-width="2" stroke-linecap="round"/>
<path d="M405.733 125.722C403.74 125.472 401.957 122.443 400.172 121.55" stroke="black" stroke-width="2" stroke-linecap="round"/>
<path d="M404.343 135.454C398.184 124.31 389.069 116.71 381.479 106.952C378.217 102.758 385.521 95.867 387.658 92.6616C394.481 82.428 396.366 103.029 397.391 107.569C399.208 115.616 400.77 123.789 402.952 131.746C403.371 133.273 406.028 141.458 402.952 136.845" stroke="black" stroke-width="2" stroke-linecap="round"/>
<path d="M402.952 124.331C402.952 98.4983 405.715 68.83 417.474 45.3116C422.551 35.1575 412.88 54.5301 418.246 54.8125C428.72 55.3637 435.976 53.7934 431.378 67.1714C426.272 82.0258 414.258 95.8572 404.961 108.342C402.482 111.67 388.925 125.196 400.172 118.77" stroke="black" stroke-width="2" stroke-linecap="round"/>
<path d="M414.075 118.77C395.938 134.64 440.604 77.8207 458.645 61.8416C464.552 56.6096 459.67 66.4449 458.567 68.7163C456.333 73.3153 454.396 77.4023 454.396 82.62C454.396 89.691 463.021 97.6466 455.478 103.476C447.16 109.903 433.917 111.617 424.117 114.521C420.477 115.6 408.551 116.026 412.685 120.16" stroke="black" stroke-width="2" stroke-linecap="round"/>
<path d="M451.615 107.647C448.5 109.684 443.498 111.36 440.801 113.517C439.114 114.867 434.991 114.351 438.716 116.761C448.871 123.332 460.088 129.881 470.926 135.3C471.816 135.745 485.126 141.259 481.895 142.097C478.098 143.081 472.773 141.238 468.918 141.093C462.03 140.833 455.108 141.016 448.217 141.016C439.617 141.016 431.017 141.016 422.418 141.016C418.942 141.016 416.717 142.885 414.771 138.776C412.598 134.189 410.564 126.94 407.123 132.673" stroke="black" stroke-width="2" stroke-linecap="round"/>
<path d="M361.241 25.6147C360.863 22.2113 359.662 20.5235 362.632 25.6147C366.898 32.9291 370.671 40.1496 374.45 47.7062C377.34 53.4868 372.557 45.3118 371.746 43.6895C370.348 40.8924 371.363 37.8939 373.832 36.0425C382.437 29.5888 373.755 20.5179 373.755 11.7109C373.755 6.98852 378.677 19.8266 380.397 24.2243C382.189 28.8021 385.1 33.4562 386.268 38.128" stroke="black" stroke-width="2" stroke-linecap="round"/>
<path d="M393.22 15.8821C394.473 19.5022 396.219 24.9393 400.172 26.6961C405.818 29.2057 403.067 16.2653 402.257 14.6462C397.225 4.58279 388.669 24.2746 400.172 31.1762" stroke="black" stroke-width="2" stroke-linecap="round"/>
<path d="M414.075 10.3206C412.732 8.47337 413.716 4.78012 413.766 4.91355C415.236 8.83289 414.564 13.4585 416.315 17.3497C418.53 22.2717 420.629 27.005 426.589 27.005" stroke="black" stroke-width="2" stroke-linecap="round"/>
<path d="M434.931 14.4917C438.435 14.9297 437.82 24.4403 439.102 27.0051" stroke="black" stroke-width="2" stroke-linecap="round"/>
<path d="M433.541 1.97833C432.147 0.78382 433.422 7.74925 433.541 8.93019" stroke="black" stroke-width="2" stroke-linecap="round"/>
<path d="M52.5784 291.176C53.2062 292.902 62.8318 303.35 64.7828 303.071C64.9941 303.041 53.8462 292.41 52.8873 291.485C46.7855 285.601 56.613 293.879 58.1399 295.347C60.8318 297.935 66.296 300.536 67.8725 303.689" stroke="black" stroke-width="2" stroke-linecap="round"/>
<path d="M52.5784 289.786C48.0555 288.655 62.7251 274.098 64.0103 272.792C65.895 270.877 76.7141 259.169 80.3858 260.897C91.6766 266.21 49.9199 299.411 60.3026 292.489C67.242 287.863 82.8242 273.875 92.204 275.959C99.7599 277.638 83.9294 289.956 82.5486 291.099C80.4555 292.831 63.4418 308.532 70.6532 299.518" stroke="black" stroke-width="2" stroke-linecap="round"/>
<path d="M92.8991 271.711C93.1627 269.602 96.8462 273.537 99.1558 273.024C104.967 271.732 105.896 266.632 101.937 262.673C92.5357 253.272 85.4009 277.756 104.022 273.101" stroke="black" stroke-width="2" stroke-linecap="round"/>
<path d="M109.584 252.245C107.894 252.245 103.215 250.048 106.803 253.636C108.807 255.64 113.04 261.278 115.84 261.901C119.665 262.751 130.641 253.031 131.83 249.465" stroke="black" stroke-width="2" stroke-linecap="round"/>
<path d="M130.439 241.122C130.948 237.053 144.153 249.893 141.253 246.993C139.188 244.928 129.912 237.383 131.83 238.342" stroke="black" stroke-width="2" stroke-linecap="round"/>
<path d="M123.487 234.171C121.708 232.168 122.37 226.169 124.878 229.304C127.428 232.493 121.471 230.615 129.049 232.78" stroke="black" stroke-width="2" stroke-linecap="round"/>
<path d="M148.514 232.78C153.112 224.607 163.694 219.899 170.451 213.624C173.878 210.441 172.013 213.061 169.215 214.86C164.265 218.042 159.397 222.044 155.157 226.137C146.348 234.642 163.769 222.613 166.589 220.576C177.026 213.038 162.29 227.249 159.946 229.691C159.079 230.593 170.169 221.644 173.541 219.958C178.875 217.291 169.442 224.366 167.979 225.828C166.286 227.522 175.575 221.583 177.403 219.958C179.636 217.973 172.875 224.321 172.15 227.219" stroke="black" stroke-width="2" stroke-linecap="round"/>
<path d="M42.8457 310.641C42.3682 306.821 12.9025 314.658 9.47679 315.121C8.29674 315.281 -0.223577 316.343 1.52076 316.125C9.31648 315.151 16.9599 313.21 24.4619 310.95C27.8531 309.929 46.579 307.003 45.6265 307.86C38.3619 314.399 28.6692 317.866 21.4494 325.086C15.2197 331.315 35.2546 314.135 42.0733 308.556C48.769 303.077 39.3732 315.56 38.1339 318.134C37.3276 319.808 34.2218 323.964 34.5035 325.935C34.6506 326.965 43.1291 316.203 44.1589 315.276C48.7567 311.138 51.3123 329.345 53.9687 332.887" stroke="black" stroke-width="2" stroke-linecap="round"/>
</svg>
