<svg width="278" height="355" viewBox="0 0 278 355" fill="none" xmlns="http://www.w3.org/2000/svg">
<path d="M11.5047 336.418C11.5047 338.768 10.8656 339.27 9.61201 341.15" stroke="black" stroke-width="2" stroke-linecap="round"/>
<path d="M1.09498 349.667C0.656965 345.287 1.78017 343.249 3.51339 339.152C5.45445 334.564 6.74764 328.95 9.08627 324.642C11.6101 319.993 21.4996 317.597 26.4358 317.597C31.4171 317.597 36.9525 319.526 40.6308 315.178C42.8489 312.557 45.2289 308.633 45.5202 305.137C46.0701 298.539 42.893 297.839 49.3582 295.726C54.3493 294.094 55.3899 289.924 59.9782 287.629C64.3591 285.439 75.7825 283.559 77.9586 278.482C79.5111 274.859 81.6977 271.794 82.9006 267.967C83.8825 264.842 84.0958 264.278 85.319 267.336" stroke="black" stroke-width="2" stroke-linecap="round"/>
<path d="M84.3727 271.121C91.8189 263.871 101.806 253.182 113.078 258.819C118.248 261.403 123.512 267.934 129.166 268.808C143.343 270.999 165.322 264.336 175.221 277.535C178.424 281.806 182.726 275.9 186.63 280.584C189.667 284.23 194.617 283.733 198.985 284.422C206.187 285.56 214.029 286.768 220.645 289.995C230.473 294.79 223.978 305.547 227.9 313.391C229.146 315.881 234.025 313.641 235.839 313.233C242.577 311.717 249.396 311.226 256.238 310.394C257.952 310.186 265.123 307.699 265.123 310.92C265.123 314.166 266.139 313.551 268.908 312.76" stroke="black" stroke-width="2" stroke-linecap="round"/>
<path d="M256.606 307.082C254.13 313.927 253.181 320.468 254.924 327.586C255.495 329.92 255.764 341.045 258.709 341.886C262.27 342.904 264.552 336.306 268.908 337.785C273.001 339.175 272.289 344.611 276.479 342.096" stroke="black" stroke-width="2" stroke-linecap="round"/>
<path d="M125.065 271.121C125.984 270.99 125.099 269.177 125.486 268.282C127.558 263.491 130.493 259.117 133.004 254.56C141.654 238.863 144.382 220.623 149.67 203.721C159.956 170.842 170.09 138.318 177.902 104.724C179.122 99.4793 180.316 94.2779 181.793 89.109C183.333 83.7172 179.16 100.014 178.06 105.512" stroke="black" stroke-width="2" stroke-linecap="round"/>
<path d="M141.153 269.228C137.222 268.246 151.708 236.098 152.088 234.845C158.311 214.361 163.024 193.437 169.122 172.912C175.037 153.009 180.064 131.199 194.2 115.238C201.467 107.034 208.666 101.842 211.602 90.8965C212.081 89.1135 215.366 77.8424 214.284 76.5437C212.386 74.266 205.768 87.6864 205.504 88.4781" stroke="black" stroke-width="2" stroke-linecap="round"/>
<path d="M182.792 88.4781C179.968 88.1644 177.125 85.6947 174.275 84.903C171.33 84.0851 169.178 81.8019 166.231 80.96C163.713 80.2406 161.066 80.0725 158.66 78.9621C156.274 77.861 153.5 76.5645 151.247 75.2294C149.46 74.1704 157.481 78.0187 157.977 78.2787C170.5 84.8484 183.522 89.6183 197.302 92.8943C212.454 96.4965 227.933 97.4711 243.147 100.57C245.941 101.139 253.759 104.481 249.561 100.36C243.453 94.3631 236.119 88.942 228.636 84.7979C218.688 79.288 207.501 79.0147 196.408 79.0147C181.324 79.0147 166.508 76.1757 151.457 76.1757C147.678 76.1757 144.132 76.1473 140.417 75.4397C136.747 74.7405 151.143 75.2294 152.509 75.2294" stroke="black" stroke-width="2" stroke-linecap="round"/>
<path d="M199.826 82.8001C189.779 80.5674 207.663 58.6684 209.289 56.5129C212.994 51.6011 217.51 46.5367 220.014 40.8458C220.683 39.3257 220.645 34.2431 220.645 35.9038C220.645 50.2879 214.697 62.7567 209.079 75.65C207.037 80.3371 205.489 86.7616 202.192 90.7913C200.019 93.4464 205.625 89.8367 206.45 89.4244" stroke="black" stroke-width="2" stroke-linecap="round"/>
<path d="M183.738 87.5317C178.309 85.4723 172.423 84.3426 166.704 83.4309C164.231 83.0367 156.809 83.1971 159.238 82.5898C164.077 81.3802 169.793 82.9737 174.538 83.799C185.911 85.777 197.277 87.8063 208.658 89.7399C214.196 90.6806 221.196 90.8603 226.06 94.1035C226.898 94.6618 228.801 96.6224 227.795 96.5745C224.319 96.409 219.905 93.4897 216.912 92.0531C208.591 88.0589 200.162 84.3651 191.519 81.1177C182.589 77.7624 173.716 74.0441 164.706 70.9183C164.256 70.762 162.863 70.4977 163.339 70.4977C164.967 70.4977 167.343 71.2186 168.807 71.5492C177.619 73.5391 185.249 78.2626 193.307 82.1692C204.806 87.7447 216.785 92.1854 229.32 94.787C233.706 95.6973 238.538 95.5127 242.832 96.7848C244.584 97.3041 239.158 96.7166 237.364 96.3642C229.458 94.8112 222.317 90.7653 214.967 87.6369C200.324 81.404 185.237 74.5789 169.753 70.708C158.043 67.7804 190.402 83.7383 201.929 87.3214C213.375 90.8796 225.206 93.4378 236.943 95.8385C240.061 96.4763 249.336 96.7728 246.301 97.7311C242.559 98.9129 235.229 95.8266 231.686 94.9973C218.79 91.9792 206.137 88.0243 193.412 84.3773C180.988 80.8167 168.396 76.8758 155.348 77.122C152.982 77.1667 152.062 77.7421 155.243 78.0684C161.339 78.6936 167.243 79.7516 173.223 81.1177C197.052 86.5609 220.352 93.2823 244.619 96.7848C249.853 97.5402 263.759 99.8711 253.767 93.2098" stroke="black" stroke-width="2" stroke-linecap="round"/>
<path d="M189.416 79.0147C189.416 74.9314 189.949 72.1099 191.992 68.3947C197.626 58.1517 204.073 48.4979 208.29 37.5336C209.785 33.6459 210.42 28.8588 215.125 28.8588C220.733 28.8588 222.844 27.9581 224.483 33.6957C228.153 46.5411 224.293 59.5892 219.068 71.5492C216.366 77.7328 213.777 83.9315 211.182 90.1604C210.54 91.7009 209.754 93.4505 208.343 94.1561" stroke="black" stroke-width="2" stroke-linecap="round"/>
<path d="M194.148 86.5854C194.969 79.7384 198.607 73.372 201.298 67.1329C204.336 60.0876 206.259 52.7706 208.553 45.4723C210.143 40.4151 211.565 34.6561 214.231 30.0155C215.147 28.422 217.386 23.6564 217.386 25.4941C217.386 29.2151 214.604 34.412 213.39 37.7964C209.548 48.5025 205.676 59.2669 202.139 70.0771C200.573 74.8647 198.423 80.9923 198.879 86.1648C199.029 87.8625 208.254 74.3867 208.553 73.8624C214.891 62.7704 220.137 51.4767 223.8 39.216C224.083 38.2659 228.104 25.0697 226.586 29.8577C221.206 46.8242 209.131 61.5098 206.555 79.5404C206.169 82.2472 207.567 78.5558 207.712 78.2786C210.036 73.845 212.607 69.5495 214.967 65.1351C221.106 53.6536 226.536 41.7385 230.95 29.4897C233.321 22.9095 238.415 2.8851 238.415 9.8795C238.415 20.9901 233.617 31.8536 230.109 42.1075" stroke="black" stroke-width="2" stroke-linecap="round"/>
<path d="M231.055 59.1416C231.055 52.634 232.685 46.0264 234.315 39.7417C236.731 30.4222 236.733 20.6554 236.733 11.0887C236.733 3.06777 231.754 -0.899579 224.01 1.88821C216.882 4.45418 216.533 12.8396 215.44 19.3955C213.852 28.9264 213.165 38.8024 210.656 48.1536C210.08 50.2994 205.957 56.6183 208.763 52.0967C215.946 40.5251 220.175 27.5978 225.903 15.2947C226.006 15.0731 229.741 7.83314 229.951 9.30119C230.394 12.4062 228.604 17.1268 227.795 20.0263C226.182 25.8071 223.069 35.5495 218.016 39.4788C212.636 43.664 225 27.767 228.321 21.8139C234.308 11.0831 228.526 26.7634 226.849 30.0155C225.913 31.8306 223.337 38.5505 221.171 39.4788C220.307 39.8493 222.613 31.3283 222.748 30.9618C223.439 29.0903 229.25 16.8113 226.323 24.1271" stroke="black" stroke-width="2" stroke-linecap="round"/>
<path d="M170.968 281.605C170.592 278.219 156.682 281.731 154.878 282.031C148.163 283.15 141.523 283.25 134.704 283.25C130.787 283.25 127.052 283.553 123.185 283.768C119.58 283.969 115.684 282.741 119.528 287.09C120.608 288.311 128.21 293.727 125.379 295.866C121.772 298.592 114.277 299.157 109.838 299.157C104.769 299.157 105.823 306.808 105.175 310.372C104.659 313.212 106.065 316.915 106.79 319.636C107.418 321.989 101.372 321.099 99.6596 321.099C97.6961 321.099 103.494 326.124 104.17 326.95C107.98 331.601 109.181 333.415 104.078 336.732C101.873 338.165 100.42 340.02 101.976 342.613C103.896 345.814 105.984 348.949 107.461 352.395C108.539 354.91 108.237 350.918 108.436 349.622" stroke="black" stroke-width="2" stroke-linecap="round"/>
<path d="M3.66742 341.394C3.54753 342.188 2.52811 351.84 3.94169 349.012C4.75533 347.385 4.76448 345.61 4.76448 343.832C4.76448 343.364 4.80732 338.863 4.76448 340.663C4.75329 341.133 4.21265 344.77 4.70353 344.502C7.03268 343.232 8.07343 339.086 8.84796 336.762C9.37985 335.166 9.84246 331.741 10.1279 335.665C10.2027 336.694 9.57961 346.521 10.3716 346.818C11.8252 347.363 14.3792 337.569 14.5465 336.701C15.3764 332.396 13.9093 326.847 15.3084 322.805C16.1816 320.282 16.5483 328.013 16.8321 330.667C16.9403 331.68 17.1875 342.382 18.0205 342.278C20.9805 341.908 24.4622 333.279 25.4257 331.063C26.8461 327.797 28.1078 317.417 28.7778 320.916C29.6599 325.522 28.5586 330.471 29.1739 335.147C29.6959 339.114 33.8921 331.7 34.3849 330.728C36.3037 326.944 36.753 321.487 39.1998 318.112C39.7761 317.317 40.2262 319.831 40.4187 320.794C41.0586 323.993 41.4208 327.242 41.7596 330.484C41.7834 330.713 41.8474 336.067 43.2223 333.928C45.7732 329.96 46.1827 324.229 46.7573 319.697C47.4363 314.34 47.5506 317.887 47.4277 321.22C47.216 326.962 45.476 333.86 46.5135 339.566C46.6606 340.375 47.3488 340.178 47.9153 339.809C50.7791 337.948 51.7414 334.209 52.3644 331.094C54.5693 320.069 54.6812 308.072 53.8576 296.872C53.815 296.292 53.6341 294.558 53.7053 295.135C54.1586 298.807 54.6065 302.483 54.9547 306.166C56.1008 318.291 56.3267 330.281 55.8994 342.43C55.8409 344.093 55.7347 349.334 57.2402 344.746C60.8381 333.781 59.9983 321.796 61.019 310.433C61.4166 306.006 62.0643 301.592 62.7864 297.207C63.1004 295.301 63.0558 290.081 64.2492 291.6C65.3415 292.99 65.0433 298.793 65.1024 300.011C65.5399 309.017 65.7184 318.056 65.5291 327.071C65.4893 328.966 63.0559 348.253 64.9501 348.982C67.6801 350.032 73.4164 323.003 73.8789 321.099" stroke="black" stroke-width="2" stroke-linecap="round"/>
<path d="M73.8789 287.09C73.3583 285.919 73.7399 281.505 74.0008 282.092C75.3517 285.132 75.7059 289.399 76.1644 292.514C77.9149 304.407 78.9276 316.394 80.644 328.29C80.7638 329.12 82.0257 340.749 84.0266 341.211C85.7459 341.608 86.9617 316.922 87.0435 315.613" stroke="black" stroke-width="2" stroke-linecap="round"/>
<path d="M86.495 276.119C87.8622 295.26 88.9511 314.329 89.2071 333.532C89.2536 337.014 88.8463 340.909 89.6033 344.35C90.4394 348.15 93.1448 341.676 93.6258 340.845" stroke="black" stroke-width="2" stroke-linecap="round"/>
<path d="M101.305 273.377C101.413 282.672 101.732 291.964 101.823 301.26C101.903 309.323 100.857 318.043 102.158 326.035C102.782 329.863 105.342 317.45 105.419 317.015C107.623 304.526 108.375 291.684 108.375 279.014C108.375 278.842 107.763 265.561 108.009 270.207C108.554 280.486 109.027 290.766 109.533 301.047C109.688 304.198 109.802 307.379 110.082 310.524C110.18 311.626 110.406 311.863 110.874 310.616C115 299.613 114.531 286.546 115.567 275.022" stroke="black" stroke-width="2" stroke-linecap="round"/>
<path d="M116.115 256.921C117.426 267.405 120.618 277.783 122.667 288.156C125.039 300.163 129.216 282.97 130.377 279.411" stroke="black" stroke-width="2" stroke-linecap="round"/>
<path d="M135.862 272.28C138.083 275.24 139.814 279.344 143.359 280.995C145.473 281.98 147.102 277.256 147.808 276.058C148.077 275.602 149.951 271.496 150.673 273.194C151.803 275.853 151.468 275.612 154.512 276.119" stroke="black" stroke-width="2" stroke-linecap="round"/>
<path d="M22.8659 339.748C23.1146 341.462 23.1414 348.384 25.06 349.561C26.4274 350.4 31.205 343.537 31.6423 343.04" stroke="black" stroke-width="2" stroke-linecap="round"/>
<path d="M33.2879 323.841C33.2383 323.196 32.9483 321.299 33.105 323.841C33.4469 329.388 33.6316 335.277 35.2382 340.632C36.1732 343.749 37.6366 345.401 39.7483 341.882C42.0904 337.978 42.5519 333.349 42.5519 328.9C42.5519 324.398 42.2189 319.879 41.79 315.4C41.6291 313.719 40.9024 308.326 40.9672 313.419C41.0632 320.953 41.9535 328.531 42.8871 336C43.1461 338.072 43.3531 340.429 44.1975 342.4C45.4122 345.234 47.0106 344.836 49.1952 346.331" stroke="black" stroke-width="2" stroke-linecap="round"/>
<path d="M56.326 305.74C58.818 319.57 60.2241 333.496 64.5539 346.879" stroke="black" stroke-width="2" stroke-linecap="round"/>
<path d="M71.6848 294.221C72.9769 305.751 74.9009 317.207 75.7987 328.778C76.0168 331.589 76.039 334.598 76.6215 337.371C76.7205 337.843 76.9473 338.901 77.5357 337.92C78.1613 336.877 78.978 334.067 79.3641 333.166" stroke="black" stroke-width="2" stroke-linecap="round"/>
<path d="M80.4612 327.132L79.3641 296.963" stroke="black" stroke-width="2" stroke-linecap="round"/>
<path d="M78.8156 276.668C79.6095 274.286 81.0206 281.216 81.6497 283.646C84.9148 296.262 86.3192 309.163 86.4645 322.165C86.5273 327.781 86.2344 333.469 86.6169 339.078C87.0473 345.39 90.5377 332.477 90.8832 331.521" stroke="black" stroke-width="2" stroke-linecap="round"/>
<path d="M89.7861 275.022C91.8154 289.415 93.0862 303.776 93.8087 318.295C94.0763 323.673 93.0052 332.189 95.8504 337.31C96.6799 338.804 97.8827 338.734 98.654 337.219C102.235 330.184 102.622 321.575 104.048 313.968" stroke="black" stroke-width="2" stroke-linecap="round"/>
<path d="M105.145 318.904C105.312 319.323 105.72 318.18 105.846 317.746C107.296 312.744 107.949 307.539 108.985 302.449" stroke="black" stroke-width="2" stroke-linecap="round"/>
<path d="M112.824 277.765C114.046 287.539 116.764 297.227 118.858 306.837" stroke="black" stroke-width="2" stroke-linecap="round"/>
</svg>
