<svg width="659" height="294" viewBox="0 0 659 294" fill="none" xmlns="http://www.w3.org/2000/svg">
<path d="M2.53238 173.196C-1.43583 141.45 32.9518 111.221 52.4525 88.9343C67.4528 71.7912 80.9901 56.6496 89.2226 35.245C93.0558 25.2786 87.2277 22.1633 80.1767 29.2144C70.3635 39.0275 70.1167 56.346 82.1031 64.6443C82.8817 65.1833 90.814 69.0918 90.814 69.5023C90.814 70.9023 79.3881 81.3133 77.9989 83.6575C69.2795 98.3716 65.4626 117.87 62.2523 134.415C58.4059 154.239 56.3439 173.884 67.6966 191.622C78.988 209.265 94.6253 187.285 99.6087 176.211C106.01 161.987 108.068 147.876 108.068 132.489" stroke="black" stroke-width="3" stroke-linecap="round"/>
<path d="M124.653 105.351C124.39 107.447 121.637 109.595 121.637 106.021C121.637 95.3074 122.332 85.5333 125.49 75.1979C131.041 57.0318 138.221 39.3923 138.221 20.1685C138.221 14.2455 135.656 30.6256 135.541 32.1459C133.655 57.2109 137.977 84.7254 141.237 109.539C142.273 117.429 144.364 140.865 156.983 140.865C170.079 140.865 169.54 112.887 169.882 105.351" stroke="black" stroke-width="3" stroke-linecap="round"/>
<path d="M106.561 57.106C110.549 56.7072 114.243 53.6661 117.617 51.7455C126.418 46.7357 135.468 42.0746 144.085 36.7527C150.672 32.6843 162.344 23.6225 162.344 14.8917" stroke="black" stroke-width="3" stroke-linecap="round"/>
<path d="M166.867 97.8127C167.211 94.7175 170.21 91.8918 171.725 89.2693C174.899 83.7761 177.507 76.9494 178.593 70.6749C180.208 61.3457 178.748 50.8506 170.552 63.4717C162.745 75.4944 165.842 90.159 169.882 103.006C172.057 109.922 175.001 117.132 183.116 117.412C196.166 117.862 202.042 108.277 204.558 96.6401C207.133 84.732 202.291 47.9618 203.051 60.1213C203.556 68.2037 218.909 59.2186 221.143 57.106C225.354 53.1225 234.92 38.4588 231.361 43.0346C224.607 51.7184 218.341 121.982 238.062 113.727C253.707 107.178 252.804 74.4469 255.819 60.9589C256.545 57.7115 258.011 50.7645 260.677 48.3951C261.699 47.486 265.5 61.4099 265.702 62.4666C266.317 65.6878 266.735 103.173 269.388 103.173C273.945 103.173 278.077 86.9991 279.271 84.0763C283.569 73.5572 288.498 63.2752 293.175 52.9181C302.048 33.2709 302.452 64.7692 302.556 71.8475C302.604 75.0894 300.966 94.7974 304.064 94.7974" stroke="black" stroke-width="3" stroke-linecap="round"/>
<path d="M337.232 63.1367C337.561 60.1759 339.381 58.1076 338.656 54.8445C336.979 47.2994 329.651 56.4371 328.186 58.9487C324.49 65.2844 313.923 107.598 330.866 93.2898C339.26 86.2017 343.905 71.6021 346.11 61.1264C346.866 57.5355 347.786 51.428 347.786 58.9487C347.786 71.252 345.548 83.9301 346.362 96.1376C346.619 100 346.58 111.014 349.628 114.062C352.479 116.913 359.812 100.713 360.601 99.3204C368.458 85.4554 376.428 70.9518 386.985 58.9487C396.236 48.4296 408.924 38.8093 415.463 26.1991C419.093 19.1984 417.658 13.4683 417.138 6.18076C416.734 0.525805 412.333 1.6491 408.846 3.668C396.94 10.5607 393.538 27.4661 390.335 39.5167C386.041 55.6712 373.088 114.397 403.569 114.397" stroke="black" stroke-width="3" stroke-linecap="round"/>
<path d="M246.773 233.502C247.122 235.946 249.923 226.729 249.704 224.54C249.109 218.584 242.506 208.609 235.381 213.483C222.376 222.382 219.036 239.194 217.29 253.604C216.084 263.547 216.905 284.041 228.011 289.285C237.309 293.676 245.895 270.566 247.443 264.995C254.567 239.347 252.149 213.759 251.379 187.602C251.23 182.524 251.296 177.438 251.296 172.358C251.296 170.274 250.941 163.102 251.631 169.845C255.287 205.593 251.387 244.231 261.514 278.899C262.63 282.718 265.378 294.839 271.649 291.463C286.058 283.704 286.939 253.665 287.396 239.951C287.622 233.162 290.099 215.685 284.464 210.049C282.253 207.838 279.801 214.912 282.956 216.583C289.06 219.814 297.718 207.065 300.378 203.265C300.88 202.548 309.613 191.615 310.01 193.8C314.128 216.448 303.399 244.347 318.805 264.492C323.779 270.997 332.643 257.272 334.887 253.771C343.553 240.253 344.141 225.464 342.509 209.798C342.177 206.615 341.494 189.964 336.059 199.161C329.231 210.717 328.36 228.087 331.201 240.873C332.738 247.789 338.179 261.688 346.278 263.487C355.848 265.614 359.306 250.784 360.684 244.39C364.234 227.933 368.214 211.883 380.284 199.496C382.384 197.341 390 194.815 390 191.287C390 185.176 379.852 197.502 379.446 198.156C372.177 209.868 369.039 222.926 370.568 236.685C370.956 240.181 374.138 256.318 379.781 256.117C390.914 255.719 396.327 233.418 397.203 225.293C398.239 215.689 399.046 206.226 399.046 196.564C399.046 193.652 399.046 209.461 399.046 211.725C399.046 214.191 398.672 263.096 409.6 251.594C416.69 244.13 416.196 228.492 417.222 219.095C417.466 216.854 426.868 184.411 429.953 188.523C441.085 203.366 433.722 262.609 433.722 244.055C433.722 230.084 434.784 216.357 438.245 202.762C438.941 200.027 443.526 176.467 448.799 182.493C459.893 195.172 453.322 249.679 453.322 232.832C453.322 227.642 459.337 172.349 470.66 178.64C478.216 182.838 473.751 201.501 473.256 207.872C472.559 216.85 471.096 228.326 475.601 236.517C478.938 242.584 486.4 237.946 490.175 234.926C500.255 226.862 506.136 209.776 507.43 197.486C507.723 194.699 509.755 179.038 507.262 176.546C503.82 173.103 500.533 189.922 500.394 190.617C498.404 200.568 498.955 239.27 517.397 236.433C538.068 233.253 536.039 188.597 532.055 174.368C531.14 171.101 534.742 176.5 537.164 176.127C545.558 174.836 551.193 167.824 558.02 163.48C563.857 159.765 560.96 168.438 560.365 170.85C556.903 184.902 554.151 199.934 554.335 214.405C554.501 227.585 560.633 226.419 568.825 218.006C584.439 201.97 587.807 178.752 594.287 158.286C596.2 152.247 599.959 133.704 599.564 140.027C599.033 148.521 596.885 156.924 598.727 165.825C602.682 184.944 612.487 202.93 615.227 222.111C616.701 232.43 613.726 250.099 600.318 251.51C592.032 252.382 595.816 244.251 598.727 240.37C615.2 218.405 636.513 200.385 656.855 182.241" stroke="black" stroke-width="3" stroke-linecap="round"/>
</svg>
